<svg class="tblchart" fill="currentColor" font-family="system-ui, sans-serif" font-size="10" text-anchor="middle" width="720" height="400" viewBox="0 0 720 400" style="background: transparent; color: rgb(74, 74, 74); font-family: Figtree, &quot;Source Sans 3&quot;, system-ui, -apple-system, &quot;Segoe UI&quot;, Arial, sans-serif; font-size: 10.5px; overflow: visible;" data-margin-left="44" data-margin-right="16" data-margin-top="18" data-margin-bottom="38"><style>:where(.tblchart) {
  --plot-background: white;
  display: block;
  height: auto;
  height: intrinsic;
  max-width: 100%;
}
:where(.tblchart text),
:where(.tblchart tspan) {
  white-space: pre;
}</style><g aria-label="rule" stroke="#F0F0F0" transform="translate(0,0.5)"><line x1="0" x2="720" y1="276" y2="276"></line><line x1="0" x2="720" y1="190" y2="190"></line><line x1="0" x2="720" y1="104" y2="104"></line><line x1="0" x2="720" y1="18" y2="18"></line></g><g aria-label="text" class="tbl-y-tick-label" fill="#666666" text-anchor="start" font-size="10.5" font-weight="500" transform="translate(-43.5,-5.5)"><text y="0.32em" transform="translate(44,362)">0%</text><text y="0.32em" transform="translate(44,276)">5%</text><text y="0.32em" transform="translate(44,190)">10%</text><text y="0.32em" transform="translate(44,104)">15%</text><text y="0.32em" transform="translate(44,18)">20%</text></g><g aria-label="text" fill="#666666" font-size="10.5" font-weight="500" transform="translate(0.5,12.5)"><text transform="translate(75.01018010963196,362)">Jan</text><text transform="translate(168.55755677368833,362)">Jul</text><text transform="translate(263.6554424432263,362)">Jan</text><text transform="translate(357.7196554424432,362)">Jul</text><text transform="translate(452.8175411119812,362)">Jan</text><text transform="translate(546.3649177760376,362)">Jul</text><text transform="translate(641.4628034455757,362)">Jan</text></g><g aria-label="text" fill="#666666" font-size="10.5" font-weight="500" transform="translate(0.5,24.5)"><text transform="translate(75.01018010963196,362)">2023</text><text transform="translate(263.6554424432263,362)">2024</text><text transform="translate(452.8175411119812,362)">2025</text><text transform="translate(641.4628034455757,362)">2026</text></g><g aria-label="rule" stroke="#999999" transform="translate(0,0.5)"><line x1="0" x2="720" y1="362" y2="362"></line></g><g aria-label="line" fill="none" stroke-width="2" stroke-linejoin="round" stroke-linecap="round" transform="translate(0.5,0.5)"><path stroke="#0072B2" d="M44,108.324L59.505,107.289L75.527,122.321L91.549,132.409L106.02,119.595L122.042,109.869L137.547,89.781L153.569,92.686L169.074,67.605L185.096,87.268L201.118,97.087L216.623,119.994L232.645,104.308L248.15,93.068L264.172,88.281L280.194,105.631L295.182,126.257L311.204,148.448L326.709,113.187L342.731,98.271L358.236,72.113L374.258,94.402L390.28,88.854L405.785,95.931L421.807,93.499L437.312,88.484L453.334,81.485L469.356,69.256L483.828,84.614L499.85,105.441L515.355,111.143L531.377,109.538L546.882,62.128L562.904,49.012L578.926,48.786M610.453,54.49L625.958,75.221L641.98,85.66L658.002,113.895L672.473,112.538L688.495,106.126L704,96.453" data-series="<5 Weeks"></path><path stroke="#8856BF" d="M44,97.547L59.505,130.087L75.527,149.979L91.549,153.323L106.02,156.543L122.042,176.629L137.547,176.359L153.569,187.735L169.074,163.251L185.096,138.61L201.118,107.445L216.623,90.374L232.645,133.2L248.15,156.768L264.172,136.496L280.194,102.23L295.182,102L311.204,140.918L326.709,144.076L342.731,120.789L358.236,84.61L374.258,64.079L390.28,108.721L405.785,155.731L421.807,192.707L437.312,138.536L453.334,120.605L469.356,66.691L483.828,80.357L499.85,99.889L515.355,140.368L531.377,129.306L546.882,112.868L562.904,113.15L578.926,138.496M610.453,105.042L625.958,94.564L641.98,102.449L658.002,124.04L672.473,119.021L688.495,116.143L704,100.579" data-series="15-26 Weeks"></path><path stroke="#2A8B3A" d="M44,176.555L59.505,184.618L75.527,184.926L91.549,180.279L106.02,151.042L122.042,152.807L137.547,161.436L153.569,182.919L169.074,158.779L185.096,133.749L201.118,94.194L216.623,70.553L232.645,88.369L248.15,116.52L264.172,158.763L280.194,151.854L295.182,150.345L311.204,143.508L326.709,129.688L342.731,122.149L358.236,103.443L374.258,102.662L390.28,94.841L405.785,108.008L421.807,130.134L437.312,143.09L453.334,152.707L469.356,152.881L483.828,145.916L499.85,139.217L515.355,142.241L531.377,136.283L546.882,117.118L562.904,102.56L578.926,113.876M610.453,116.571L625.958,125.866L641.98,102.873L658.002,102.621L672.473,94.528L688.495,122.96L704,115.651" data-series="27+ Weeks"></path><path stroke="#E69F00" d="M44,115.887L59.505,108.911L75.527,85.259L91.549,89.671L106.02,110.753L122.042,159.525L137.547,158.543L153.569,144.747L169.074,103.623L185.096,67.766L201.118,85.579L216.623,96.286L232.645,127.442L248.15,110.627L264.172,111.19L280.194,110.459L295.182,113.716L311.204,154.389L326.709,152.021L342.731,161.759L358.236,122.225L374.258,85.985L390.28,70.233L405.785,82.916L421.807,121.561L437.312,112.067L453.334,89.464L469.356,90.555L483.828,111L499.85,146.291L515.355,159.104L531.377,168.364L546.882,156.617L562.904,139.96L578.926,114.37M610.453,72.968L625.958,40.195L641.98,56.156L658.002,79.939L672.473,101.356L688.495,117.782L704,134.657" data-series="5-14 Weeks"></path></g></svg>