<svg class="tblchart" fill="currentColor" font-family="system-ui, sans-serif" font-size="10" text-anchor="middle" width="520" height="760" viewBox="0 0 520 760" style="background: transparent; color: rgb(74, 74, 74); font-family: Figtree, &quot;Source Sans 3&quot;, system-ui, -apple-system, &quot;Segoe UI&quot;, Arial, sans-serif; font-size: 10.5px; overflow: visible;" data-margin-left="240" data-margin-right="16" data-margin-top="38" data-margin-bottom="26"><style>:where(.tblchart) {
  --plot-background: white;
  display: block;
  height: auto;
  height: intrinsic;
  max-width: 100%;
}
:where(.tblchart text),
:where(.tblchart tspan) {
  white-space: pre;
}</style><g aria-label="rule" transform="translate(0.5,0)"><g class="tbl-gridline" stroke="#F0F0F0" transform="translate(0,0)"><line x1="292.8" x2="292.8" y1="30" y2="734"></line><line x1="345.6" x2="345.6" y1="30" y2="734"></line><line x1="398.4" x2="398.4" y1="30" y2="734"></line><line x1="451.20000000000005" x2="451.20000000000005" y1="30" y2="734"></line><line x1="504" x2="504" y1="30" y2="734"></line></g></g><g aria-label="text" transform="translate(0.5,12.5)"><g class="tbl-x-tick-label" fill="#666666" font-size="10.5" font-weight="500" transform="translate(0,671)"><text transform="translate(240,63)">0</text><text transform="translate(292.8,63)">1</text><text transform="translate(345.6,63)">2</text><text transform="translate(398.4,63)">3</text><text transform="translate(451.20000000000005,63)">4</text><text transform="translate(504,63)">5</text></g></g><g aria-label="text" transform="translate(-239.5,0.5)"><g class="tbl-cat-label" fill="#666666" text-anchor="start" font-size="13" font-weight="500" transform="translate(0,0)"><text y="0.32em" transform="translate(240,50.5)" data-category="Motor vehicles and parts">Motor vehicles and parts</text></g><g class="tbl-cat-label" fill="#666666" text-anchor="start" font-size="13" font-weight="500" transform="translate(0,31)"><text transform="translate(240,50.5)" data-category="Furnishings and durable household equipment"><tspan x="0" y="-0.18em">Furnishings and durable</tspan><tspan x="0" dy="1em">household equipment</tspan></text></g><g class="tbl-cat-label" fill="#666666" text-anchor="start" font-size="13" font-weight="500" transform="translate(0,62)"><text y="0.32em" transform="translate(240,50.5)" data-category="Recreational goods and vehicles">Recreational goods and vehicles</text></g><g class="tbl-cat-label" fill="#666666" text-anchor="start" font-size="13" font-weight="500" transform="translate(0,93)"><text y="0.32em" transform="translate(240,50.5)" data-category="Other durable goods">Other durable goods</text></g><g class="tbl-cat-label" fill="#666666" text-anchor="start" font-size="13" font-weight="500" transform="translate(0,155)"><text y="0.32em" transform="translate(240,50.5)" data-category="Clothing and footwear">Clothing and footwear</text></g><g class="tbl-cat-label" fill="#666666" text-anchor="start" font-size="13" font-weight="500" transform="translate(0,186)"><text y="0.32em" transform="translate(240,50.5)" data-category="Other nondurable goods">Other nondurable goods</text></g><g class="tbl-cat-label" fill="#666666" text-anchor="start" font-size="13" font-weight="500" transform="translate(0,217)"><text transform="translate(240,50.5)" data-category="Food and beverages purchased for off-premises consumption"><tspan x="0" y="-0.18em">Food and beverages purchased for</tspan><tspan x="0" dy="1em">off-premises consumption</tspan></text></g><g class="tbl-cat-label" fill="#666666" text-anchor="start" font-size="13" font-weight="500" transform="translate(0,248)"><text y="0.32em" transform="translate(240,50.5)" data-category="Gasoline and other energy goods">Gasoline and other energy goods</text></g><g class="tbl-cat-label" fill="#666666" text-anchor="start" font-size="13" font-weight="500" transform="translate(0,310)"><text y="0.32em" transform="translate(240,50.5)" data-category="Net foreign travel">Net foreign travel</text></g><g class="tbl-cat-label" fill="#666666" text-anchor="start" font-size="13" font-weight="500" transform="translate(0,341)"><text y="0.32em" transform="translate(240,50.5)" data-category="Transportation services">Transportation services</text></g><g class="tbl-cat-label" fill="#666666" text-anchor="start" font-size="13" font-weight="500" transform="translate(0,372)"><text y="0.32em" transform="translate(240,50.5)" data-category="Communication">Communication</text></g><g class="tbl-cat-label" fill="#666666" text-anchor="start" font-size="13" font-weight="500" transform="translate(0,403)"><text y="0.32em" transform="translate(240,50.5)" data-category="Household utilities">Household utilities</text></g><g class="tbl-cat-label" fill="#666666" text-anchor="start" font-size="13" font-weight="500" transform="translate(0,434)"><text y="0.32em" transform="translate(240,50.5)" data-category="Other services">Other services</text></g><g class="tbl-cat-label" fill="#666666" text-anchor="start" font-size="13" font-weight="500" transform="translate(0,465)"><text transform="translate(240,50.5)" data-category="Final consumption expenditures of NPISH"><tspan x="0" y="-0.18em">Final consumption expenditures</tspan><tspan x="0" dy="1em">of NPISH</tspan></text></g><g class="tbl-cat-label" fill="#666666" text-anchor="start" font-size="13" font-weight="500" transform="translate(0,496)"><text y="0.32em" transform="translate(240,50.5)" data-category="Recreation services">Recreation services</text></g><g class="tbl-cat-label" fill="#666666" text-anchor="start" font-size="13" font-weight="500" transform="translate(0,527)"><text y="0.32em" transform="translate(240,50.5)" data-category="Food services and accommodations">Food services and accommodations</text></g><g class="tbl-cat-label" fill="#666666" text-anchor="start" font-size="13" font-weight="500" transform="translate(0,558)"><text y="0.32em" transform="translate(240,50.5)" data-category="Health care">Health care</text></g><g class="tbl-cat-label" fill="#666666" text-anchor="start" font-size="13" font-weight="500" transform="translate(0,589)"><text y="0.32em" transform="translate(240,50.5)" data-category="Education">Education</text></g><g class="tbl-cat-label" fill="#666666" text-anchor="start" font-size="13" font-weight="500" transform="translate(0,620)"><text y="0.32em" transform="translate(240,50.5)" data-category="Financial services and insurance">Financial services and insurance</text></g><g class="tbl-cat-label" fill="#666666" text-anchor="start" font-size="13" font-weight="500" transform="translate(0,651)"><text y="0.32em" transform="translate(240,50.5)" data-category="Housing">Housing</text></g></g><g aria-label="text" transform="translate(-239.5,-9.5)"><g fill="#1A1A2E" text-anchor="start" font-size="13" font-weight="700" transform="translate(0,124)"><text transform="translate(240,63)">Nondurable goods</text></g><g fill="#1A1A2E" text-anchor="start" font-size="13" font-weight="700" transform="translate(0,279)"><text transform="translate(240,63)">Services</text></g></g><g aria-label="text" transform="translate(-239.5,-27.5)"><g fill="#1A1A2E" text-anchor="start" font-size="13" font-weight="700" transform="translate(0,0)"><text y="0.71em" transform="translate(240,38)">Durable goods</text></g></g><g aria-label="rule" transform="translate(0.5,0)"><g class="tbl-zero-baseline" stroke="#999999" transform="translate(0,0)"><line x1="240" x2="240" y1="38" y2="734"></line></g></g><g aria-label="bar"><g fill="#0072B2" transform="translate(0,0)"><rect x="240" width="234.67488000000003" y="38" height="25" data-series="Pre-Substitution"></rect></g><g fill="#0072B2" transform="translate(0,31)"><rect x="240" width="111.52416" y="38" height="25" data-series="Pre-Substitution"></rect></g><g fill="#0072B2" transform="translate(0,62)"><rect x="240" width="92.75904000000003" y="38" height="25" data-series="Pre-Substitution"></rect></g><g fill="#0072B2" transform="translate(0,93)"><rect x="240" width="71.49119999999999" y="38" height="25" data-series="Pre-Substitution"></rect></g><g fill="#0072B2" transform="translate(0,155)"><rect x="240" width="191.09375999999997" y="38" height="25" data-series="Pre-Substitution"></rect></g><g fill="#0072B2" transform="translate(0,186)"><rect x="240" width="48.090239999999994" y="38" height="25" data-series="Pre-Substitution"></rect></g><g fill="#0072B2" transform="translate(0,217)"><rect x="240" width="22.54032000000001" y="38" height="25" data-series="Pre-Substitution"></rect></g><g fill="#0072B2" transform="translate(0,248)"><rect x="240" width="18.21071999999998" y="38" height="25" data-series="Pre-Substitution"></rect></g><g fill="#0072B2" transform="translate(0,310)"><rect x="240" width="39.40464000000003" y="38" height="25" data-series="Pre-Substitution"></rect></g><g fill="#0072B2" transform="translate(0,341)"><rect x="240" width="39.008640000000014" y="38" height="25" data-series="Pre-Substitution"></rect></g><g fill="#0072B2" transform="translate(0,372)"><rect x="240" width="23.411519999999996" y="38" height="25" data-series="Pre-Substitution"></rect></g><g fill="#0072B2" transform="translate(0,403)"><rect x="240" width="18.73872" y="38" height="25" data-series="Pre-Substitution"></rect></g><g fill="#0072B2" transform="translate(0,434)"><rect x="240" width="16.77983999999998" y="38" height="25" data-series="Pre-Substitution"></rect></g><g fill="#0072B2" transform="translate(0,465)"><rect x="240" width="16.162080000000003" y="38" height="25" data-series="Pre-Substitution"></rect></g><g fill="#0072B2" transform="translate(0,496)"><rect x="240" width="16.01952" y="38" height="25" data-series="Pre-Substitution"></rect></g><g fill="#0072B2" transform="translate(0,527)"><rect x="240" width="14.19792000000001" y="38" height="25" data-series="Pre-Substitution"></rect></g><g fill="#0072B2" transform="translate(0,558)"><rect x="240" width="12.97824" y="38" height="25" data-series="Pre-Substitution"></rect></g><g fill="#0072B2" transform="translate(0,589)"><rect x="240" width="11.087999999999994" y="38" height="25" data-series="Pre-Substitution"></rect></g><g fill="#0072B2" transform="translate(0,620)"><rect x="240" width="5.142719999999997" y="38" height="25" data-series="Pre-Substitution"></rect></g><g fill="#0072B2" transform="translate(0,651)"><rect x="240" width="2.645280000000014" y="38" height="25" data-series="Pre-Substitution"></rect></g></g></svg>