<svg class="tblchart" fill="currentColor" font-family="system-ui, sans-serif" font-size="10" text-anchor="middle" width="720" height="400" viewBox="0 0 720 400" style="background: transparent; color: rgb(74, 74, 74); font-family: Figtree, &quot;Source Sans 3&quot;, system-ui, -apple-system, &quot;Segoe UI&quot;, Arial, sans-serif; font-size: 10.5px; overflow: visible;" data-margin-left="44" data-margin-right="16" data-margin-top="18" data-margin-bottom="22"><style>:where(.tblchart) {
  --plot-background: white;
  display: block;
  height: auto;
  height: intrinsic;
  max-width: 100%;
}
:where(.tblchart text),
:where(.tblchart tspan) {
  white-space: pre;
}</style><g aria-label="rule" stroke="#F0F0F0" transform="translate(0,0.5)"><line x1="0" x2="720" y1="378" y2="378"></line><line x1="0" x2="720" y1="288" y2="288"></line><line x1="0" x2="720" y1="108" y2="108"></line><line x1="0" x2="720" y1="18" y2="18"></line></g><g aria-label="text" class="tbl-y-tick-label" fill="#666666" text-anchor="start" font-size="10.5" font-weight="500" transform="translate(-43.5,-5.5)"><text y="0.32em" transform="translate(44,378)">-4%</text><text y="0.32em" transform="translate(44,288)">-2%</text><text y="0.32em" transform="translate(44,198)">0%</text><text y="0.32em" transform="translate(44,108)">2%</text><text y="0.32em" transform="translate(44,18)">4%</text></g><g aria-label="text" fill="#666666" text-anchor="start" font-size="10.5" font-weight="500" transform="translate(0.5,12.5)"><text y="0.32em" transform="translate(72,378)">Healthcare</text><text y="0.32em" transform="translate(198,378)">Manufacturing</text><text y="0.32em" transform="translate(324,378)">Retail</text><text y="0.32em" transform="translate(450,378)">Energy</text><text y="0.32em" transform="translate(576,378)">Tech</text></g><g aria-label="rule" stroke="#999999" transform="translate(0,0.5)"><line x1="0" x2="720" y1="198" y2="198"></line></g><g aria-label="bar" fill="#0072B2"><rect x="72" width="101" y="89.99999999999999" height="108.00000000000001" data-series="Change"></rect><rect x="198" width="101" y="198" height="71.99999999999994" data-series="Change"></rect><rect x="324" width="101" y="157.5" height="40.5" data-series="Change"></rect><rect x="450" width="101" y="198" height="139.49999999999994" data-series="Change"></rect><rect x="576" width="101" y="27.000000000000007" height="171" data-series="Change"></rect></g><g aria-label="text" fill="#1A1A2E" font-size="10.5" font-weight="600" transform="translate(51,-3.5)"><text y="0.32em" transform="translate(72,89.99999999999999)">2.4%</text><text y="0.32em" transform="translate(324,157.5)">0.9%</text><text y="0.32em" transform="translate(576,27.000000000000007)">3.8%</text></g><g aria-label="text" fill="#1A1A2E" font-size="10.5" font-weight="600" transform="translate(51,12.5)"><text y="0.32em" transform="translate(198,269.99999999999994)">1.6%</text><text y="0.32em" transform="translate(450,337.49999999999994)">3.1%</text></g></svg>