<svg class="tblchart" fill="currentColor" font-family="system-ui, sans-serif" font-size="10" text-anchor="middle" width="720" height="400" viewBox="0 0 720 400" style="background: transparent; color: rgb(74, 74, 74); font-family: Figtree, &quot;Source Sans 3&quot;, system-ui, -apple-system, &quot;Segoe UI&quot;, Arial, sans-serif; font-size: 10.5px; overflow: visible;" data-margin-left="62" data-margin-right="16" data-margin-top="18" data-margin-bottom="26"><style>:where(.tblchart) {
  --plot-background: white;
  display: block;
  height: auto;
  height: intrinsic;
  max-width: 100%;
}
:where(.tblchart text),
:where(.tblchart tspan) {
  white-space: pre;
}</style><g aria-label="rule" transform="translate(0.5,0)"><g class="tbl-gridline" stroke="#F0F0F0" transform="translate(0,0)"><line x1="169" x2="169" y1="10" y2="374"></line><line x1="276" x2="276" y1="10" y2="374"></line><line x1="383" x2="383" y1="10" y2="374"></line><line x1="490" x2="490" y1="10" y2="374"></line><line x1="597.0000000000001" x2="597.0000000000001" y1="10" y2="374"></line><line x1="704" x2="704" y1="10" y2="374"></line></g></g><g aria-label="text" transform="translate(0.5,12.5)"><g class="tbl-x-tick-label" fill="#666666" font-size="10.5" font-weight="500" transform="translate(0,256)"><text transform="translate(62,118)">0%</text><text transform="translate(169,118)">1%</text><text transform="translate(276,118)">2%</text><text transform="translate(383,118)">3%</text><text transform="translate(490,118)">4%</text><text transform="translate(597.0000000000001,118)">5%</text><text transform="translate(704,118)">6%</text></g></g><g aria-label="text" transform="translate(-61.5,0.5)"><g fill="#666666" text-anchor="start" font-size="10.5" font-weight="500" transform="translate(0,0)"><text y="0.32em" transform="translate(62,68)">Northeast</text></g><g fill="#666666" text-anchor="start" font-size="10.5" font-weight="500" transform="translate(0,125)"><text y="0.32em" transform="translate(62,68)">Midwest</text></g><g fill="#666666" text-anchor="start" font-size="10.5" font-weight="500" transform="translate(0,250)"><text y="0.32em" transform="translate(62,68)">South</text></g></g><g aria-label="rule" transform="translate(0.5,0)"><g class="tbl-zero-baseline" stroke="#999999" transform="translate(0,0)"><line x1="62" x2="62" y1="18" y2="374"></line></g></g><g aria-label="bar"><g transform="translate(0,0)"><rect x="62" width="342.4" y="19" height="33" fill="#0072B2" data-series="2019"></rect><rect x="62" width="438.69999999999993" y="52" height="33" fill="#E69F00" data-series="2022"></rect><rect x="62" width="513.5999999999999" y="85" height="33" fill="#8856BF" data-series="2025"></rect></g><g transform="translate(0,125)"><rect x="62" width="224.70000000000005" y="19" height="33" fill="#0072B2" data-series="2019"></rect><rect x="62" width="0" y="52" height="33" fill="#E69F00" data-series="2022"></rect><rect x="62" width="353.0999999999999" y="85" height="33" fill="#8856BF" data-series="2025"></rect></g><g transform="translate(0,250)"><rect x="62" width="481.5" y="19" height="33" fill="#0072B2" data-series="2019"></rect><rect x="62" width="535.0000000000001" y="52" height="33" fill="#E69F00" data-series="2022"></rect><rect x="62" width="599.1999999999999" y="85" height="33" fill="#8856BF" data-series="2025"></rect></g></g></svg>