<svg class="tblchart" fill="currentColor" font-family="system-ui, sans-serif" font-size="10" text-anchor="middle" width="720" height="400" viewBox="0 0 720 400" style="background: transparent; color: rgb(74, 74, 74); font-family: Figtree, &quot;Source Sans 3&quot;, system-ui, -apple-system, &quot;Segoe UI&quot;, Arial, sans-serif; font-size: 10.5px; overflow: visible;" data-margin-left="44" data-margin-right="16" data-margin-top="18" data-margin-bottom="22"><style>:where(.tblchart) {
  --plot-background: white;
  display: block;
  height: auto;
  height: intrinsic;
  max-width: 100%;
}
:where(.tblchart text),
:where(.tblchart tspan) {
  white-space: pre;
}</style><g aria-label="rule" stroke="#F0F0F0" transform="translate(0.5,0)"><line x1="176" x2="176" y1="18" y2="378"></line><line x1="308" x2="308" y1="18" y2="378"></line><line x1="440" x2="440" y1="18" y2="378"></line><line x1="572" x2="572" y1="18" y2="378"></line><line x1="704" x2="704" y1="18" y2="378"></line></g><g aria-label="text" fill="#666666" font-size="10.5" font-weight="500" transform="translate(0.5,12.5)"><text transform="translate(44,378)">0%</text><text transform="translate(176,378)">1%</text><text transform="translate(308,378)">2%</text><text transform="translate(440,378)">3%</text><text transform="translate(572,378)">4%</text><text transform="translate(704,378)">5%</text></g><g aria-label="text" fill="#666666" text-anchor="start" font-size="10.5" font-weight="500" transform="translate(-43.5,34.5)"><text y="0.32em" transform="translate(44,37)">Northeastern region</text><text y="0.32em" transform="translate(44,122)">Midwestern region</text><text y="0.32em" transform="translate(44,207)">Southern region</text><text y="0.32em" transform="translate(44,292)">Western region</text></g><g aria-label="rule" stroke="#999999" transform="translate(0.5,0)"><line x1="44" x2="44" y1="18" y2="378"></line></g><g aria-label="bar" fill="#0072B2"><rect x="44" width="422.4" y="37" height="68" data-series="Share"></rect><rect x="44" width="277.2" y="122" height="68" data-series="Share"></rect><rect x="44" width="594" y="207" height="68" data-series="Share"></rect><rect x="44" width="237.60000000000002" y="292" height="68" data-series="Share"></rect></g><g aria-label="text" fill="#1A1A2E" text-anchor="start" font-size="10.5" font-weight="600" transform="translate(4.5,34.5)"><text y="0.32em" transform="translate(466.4,37)">3.2%</text><text y="0.32em" transform="translate(321.2,122)">2.1%</text><text y="0.32em" transform="translate(638,207)">4.5%</text><text y="0.32em" transform="translate(281.6,292)">1.8%</text></g></svg>