<svg class="tblchart" fill="currentColor" font-family="system-ui, sans-serif" font-size="10" text-anchor="middle" width="720" height="400" viewBox="0 0 720 400" style="background: transparent; color: rgb(74, 74, 74); font-family: Figtree, &quot;Source Sans 3&quot;, system-ui, -apple-system, &quot;Segoe UI&quot;, Arial, sans-serif; font-size: 10.5px; overflow: visible;" data-margin-left="44" data-margin-right="16" data-margin-top="18" data-margin-bottom="22"><style>:where(.tblchart) {
  --plot-background: white;
  display: block;
  height: auto;
  height: intrinsic;
  max-width: 100%;
}
:where(.tblchart text),
:where(.tblchart tspan) {
  white-space: pre;
}</style><g aria-label="rule" stroke="#F0F0F0" transform="translate(0,0.5)"><line x1="0" x2="720" y1="306.00000000000006" y2="306.00000000000006"></line><line x1="0" x2="720" y1="233.99999999999997" y2="233.99999999999997"></line><line x1="0" x2="720" y1="162.00000000000003" y2="162.00000000000003"></line><line x1="0" x2="720" y1="89.99999999999999" y2="89.99999999999999"></line><line x1="0" x2="720" y1="18" y2="18"></line></g><g aria-label="text" class="tbl-y-tick-label" fill="#666666" text-anchor="start" font-size="10.5" font-weight="500" transform="translate(-43.5,-5.5)"><text y="0.32em" transform="translate(44,378)">0%</text><text y="0.32em" transform="translate(44,306.00000000000006)">1%</text><text y="0.32em" transform="translate(44,233.99999999999997)">2%</text><text y="0.32em" transform="translate(44,162.00000000000003)">3%</text><text y="0.32em" transform="translate(44,89.99999999999999)">4%</text><text y="0.32em" transform="translate(44,18)">5%</text></g><g aria-label="text" fill="#666666" text-anchor="start" font-size="10.5" font-weight="500" transform="translate(0.5,12.5)"><text transform="translate(53,378)">Cat1</text><text transform="translate(80,378)">Cat2</text><text transform="translate(107,378)">Cat3</text><text transform="translate(134,378)">Cat4</text><text transform="translate(161,378)">Cat5</text><text transform="translate(188,378)">Cat6</text><text transform="translate(215,378)">Cat7</text><text transform="translate(242,378)">Cat8</text><text transform="translate(269,378)">Cat9</text><text transform="translate(296,378)">Cat10</text><text transform="translate(323,378)">Cat11</text><text transform="translate(350,378)">Cat12</text><text transform="translate(377,378)">Cat13</text><text transform="translate(404,378)">Cat14</text><text transform="translate(431,378)">Cat15</text><text transform="translate(458,378)">Cat16</text><text transform="translate(485,378)">Cat17</text><text transform="translate(512,378)">Cat18</text><text transform="translate(539,378)">Cat19</text><text transform="translate(566,378)">Cat20</text><text transform="translate(593,378)">Cat21</text><text transform="translate(620,378)">Cat22</text><text transform="translate(647,378)">Cat23</text><text transform="translate(674,378)">Cat24</text></g><g aria-label="rule" stroke="#999999" transform="translate(0,0.5)"><line x1="0" x2="720" y1="378" y2="378"></line></g><g aria-label="bar" fill="#0072B2"><rect x="53" width="22" y="269.99999999999994" height="108.00000000000006" data-series="Series"></rect><rect x="80" width="22" y="233.99999999999997" height="144.00000000000003" data-series="Series"></rect><rect x="107" width="22" y="198" height="180" data-series="Series"></rect><rect x="134" width="22" y="162.00000000000003" height="215.99999999999997" data-series="Series"></rect><rect x="161" width="22" y="126.00000000000001" height="252" data-series="Series"></rect><rect x="188" width="22" y="89.99999999999999" height="288" data-series="Series"></rect><rect x="215" width="22" y="306.00000000000006" height="71.99999999999994" data-series="Series"></rect><rect x="242" width="22" y="269.99999999999994" height="108.00000000000006" data-series="Series"></rect><rect x="269" width="22" y="233.99999999999997" height="144.00000000000003" data-series="Series"></rect><rect x="296" width="22" y="198" height="180" data-series="Series"></rect><rect x="323" width="22" y="162.00000000000003" height="215.99999999999997" data-series="Series"></rect><rect x="350" width="22" y="126.00000000000001" height="252" data-series="Series"></rect><rect x="377" width="22" y="89.99999999999999" height="288" data-series="Series"></rect><rect x="404" width="22" y="306.00000000000006" height="71.99999999999994" data-series="Series"></rect><rect x="431" width="22" y="269.99999999999994" height="108.00000000000006" data-series="Series"></rect><rect x="458" width="22" y="233.99999999999997" height="144.00000000000003" data-series="Series"></rect><rect x="485" width="22" y="198" height="180" data-series="Series"></rect><rect x="512" width="22" y="162.00000000000003" height="215.99999999999997" data-series="Series"></rect><rect x="539" width="22" y="126.00000000000001" height="252" data-series="Series"></rect><rect x="566" width="22" y="89.99999999999999" height="288" data-series="Series"></rect><rect x="593" width="22" y="306.00000000000006" height="71.99999999999994" data-series="Series"></rect><rect x="620" width="22" y="269.99999999999994" height="108.00000000000006" data-series="Series"></rect><rect x="647" width="22" y="233.99999999999997" height="144.00000000000003" data-series="Series"></rect><rect x="674" width="22" y="198" height="180" data-series="Series"></rect></g></svg>