<svg class="tblchart" fill="currentColor" font-family="system-ui, sans-serif" font-size="10" text-anchor="middle" width="720" height="400" viewBox="0 0 720 400" style="background: transparent; color: rgb(74, 74, 74); font-family: Figtree, &quot;Source Sans 3&quot;, system-ui, -apple-system, &quot;Segoe UI&quot;, Arial, sans-serif; font-size: 10.5px; overflow: visible;" data-margin-left="146" data-margin-right="16" data-margin-top="18" data-margin-bottom="26"><style>:where(.tblchart) {
  --plot-background: white;
  display: block;
  height: auto;
  height: intrinsic;
  max-width: 100%;
}
:where(.tblchart text),
:where(.tblchart tspan) {
  white-space: pre;
}</style><g aria-label="rule" stroke="#F0F0F0" transform="translate(0.5,0)"><line x1="257.6" x2="257.6" y1="18" y2="374"></line><line x1="369.20000000000005" x2="369.20000000000005" y1="18" y2="374"></line><line x1="480.79999999999995" x2="480.79999999999995" y1="18" y2="374"></line><line x1="592.4000000000001" x2="592.4000000000001" y1="18" y2="374"></line><line x1="704" x2="704" y1="18" y2="374"></line></g><g aria-label="text" fill="#666666" font-size="10.5" font-weight="500" transform="translate(0.5,12.5)"><text transform="translate(146,374)">0%</text><text transform="translate(257.6,374)">1%</text><text transform="translate(369.20000000000005,374)">2%</text><text transform="translate(480.79999999999995,374)">3%</text><text transform="translate(592.4000000000001,374)">4%</text><text transform="translate(704,374)">5%</text></g><g aria-label="text" class="tbl-cat-label" fill="#666666" text-anchor="start" font-size="13" font-weight="500" transform="translate(-145.5,37.5)"><text y="0.32em" transform="translate(146,18)" data-category="Northeastern region">Northeastern region</text><text y="0.32em" transform="translate(146,110)" data-category="Midwestern region">Midwestern region</text><text y="0.32em" transform="translate(146,202)" data-category="Southern region">Southern region</text><text y="0.32em" transform="translate(146,294)" data-category="Western region">Western region</text></g><g aria-label="rule" stroke="#999999" transform="translate(0.5,0)"><line x1="146" x2="146" y1="18" y2="374"></line></g><g aria-label="bar" fill="#0072B2"><rect x="146" width="357.12" y="18" height="74" data-series="Share"></rect><rect x="146" width="234.36" y="110" height="74" data-series="Share"></rect><rect x="146" width="502.20000000000005" y="202" height="74" data-series="Share"></rect><rect x="146" width="200.88" y="294" height="74" data-series="Share"></rect></g></svg>