<svg class="tblchart" fill="currentColor" font-family="system-ui, sans-serif" font-size="10" text-anchor="middle" width="720" height="400" viewBox="0 0 720 400" style="background: transparent; color: rgb(74, 74, 74); font-family: Figtree, &quot;Source Sans 3&quot;, system-ui, -apple-system, &quot;Segoe UI&quot;, Arial, sans-serif; font-size: 10.5px; overflow: visible;" data-margin-left="120" data-margin-right="16" data-margin-top="18" data-margin-bottom="22"><style>:where(.tblchart) {
  --plot-background: white;
  display: block;
  height: auto;
  height: intrinsic;
  max-width: 100%;
}
:where(.tblchart text),
:where(.tblchart tspan) {
  white-space: pre;
}</style><g aria-label="rule" stroke="#F0F0F0" transform="translate(0.5,0)"><line x1="236.8" x2="236.8" y1="18" y2="378"></line><line x1="353.6" x2="353.6" y1="18" y2="378"></line><line x1="470.4" x2="470.4" y1="18" y2="378"></line><line x1="587.2" x2="587.2" y1="18" y2="378"></line><line x1="704" x2="704" y1="18" y2="378"></line></g><g aria-label="text" fill="#666666" font-size="10.5" font-weight="500" transform="translate(0.5,12.5)"><text transform="translate(120,378)">0%</text><text transform="translate(236.8,378)">1%</text><text transform="translate(353.6,378)">2%</text><text transform="translate(470.4,378)">3%</text><text transform="translate(587.2,378)">4%</text><text transform="translate(704,378)">5%</text></g><g aria-label="text" fill="#666666" text-anchor="start" font-size="10.5" font-weight="500" transform="translate(-119.5,34.5)"><text y="0.32em" transform="translate(120,37)">Northeastern region</text><text y="0.32em" transform="translate(120,122)">Midwestern region</text><text y="0.32em" transform="translate(120,207)">Southern region</text><text y="0.32em" transform="translate(120,292)">Western region</text></g><g aria-label="rule" stroke="#999999" transform="translate(0.5,0)"><line x1="120" x2="120" y1="18" y2="378"></line></g><g aria-label="bar" fill="#0072B2"><rect x="120" width="373.76" y="37" height="68" data-series="Share"></rect><rect x="120" width="245.27999999999997" y="122" height="68" data-series="Share"></rect><rect x="120" width="525.6" y="207" height="68" data-series="Share"></rect><rect x="120" width="210.24" y="292" height="68" data-series="Share"></rect></g><g aria-label="text" fill="#1A1A2E" text-anchor="start" font-size="10.5" font-weight="600" transform="translate(4.5,34.5)"><text y="0.32em" transform="translate(493.76,37)">3.2%</text><text y="0.32em" transform="translate(365.28,122)">2.1%</text><text y="0.32em" transform="translate(645.6,207)">4.5%</text><text y="0.32em" transform="translate(330.24,292)">1.8%</text></g></svg>