<svg class="tblchart" fill="currentColor" font-family="system-ui, sans-serif" font-size="10" text-anchor="middle" width="720" height="400" viewBox="0 0 720 400" style="background: transparent; color: rgb(74, 74, 74); font-family: Figtree, &quot;Source Sans 3&quot;, system-ui, -apple-system, &quot;Segoe UI&quot;, Arial, sans-serif; font-size: 10.5px; overflow: visible;" data-margin-left="44" data-margin-right="16" data-margin-top="18" data-margin-bottom="39"><style>:where(.tblchart) {
  --plot-background: white;
  display: block;
  height: auto;
  height: intrinsic;
  max-width: 100%;
}
:where(.tblchart text),
:where(.tblchart tspan) {
  white-space: pre;
}</style><g aria-label="rule" stroke="#F0F0F0" transform="translate(0,0.5)"><line x1="0" x2="720" y1="292.40000000000003" y2="292.40000000000003"></line><line x1="0" x2="720" y1="223.79999999999998" y2="223.79999999999998"></line><line x1="0" x2="720" y1="155.20000000000002" y2="155.20000000000002"></line><line x1="0" x2="720" y1="86.6" y2="86.6"></line><line x1="0" x2="720" y1="18" y2="18"></line></g><g aria-label="text" class="tbl-y-tick-label" fill="#666666" text-anchor="start" font-size="10.5" font-weight="500" transform="translate(-43.5,-5.5)"><text y="0.32em" transform="translate(44,361)">0%</text><text y="0.32em" transform="translate(44,292.40000000000003)">1%</text><text y="0.32em" transform="translate(44,223.79999999999998)">2%</text><text y="0.32em" transform="translate(44,155.20000000000002)">3%</text><text y="0.32em" transform="translate(44,86.6)">4%</text><text y="0.32em" transform="translate(44,18)">5%</text></g><g aria-label="text" fill="#666666" font-size="10.5" font-weight="500" transform="translate(11.5,22.5)"><text transform="translate(53,361) rotate(-45)">Cat1</text><text transform="translate(80,361) rotate(-45)">Cat2</text><text transform="translate(107,361) rotate(-45)">Cat3</text><text transform="translate(134,361) rotate(-45)">Cat4</text><text transform="translate(161,361) rotate(-45)">Cat5</text><text transform="translate(188,361) rotate(-45)">Cat6</text><text transform="translate(215,361) rotate(-45)">Cat7</text><text transform="translate(242,361) rotate(-45)">Cat8</text><text transform="translate(269,361) rotate(-45)">Cat9</text><text transform="translate(296,361) rotate(-45)">Cat10</text><text transform="translate(323,361) rotate(-45)">Cat11</text><text transform="translate(350,361) rotate(-45)">Cat12</text><text transform="translate(377,361) rotate(-45)">Cat13</text><text transform="translate(404,361) rotate(-45)">Cat14</text><text transform="translate(431,361) rotate(-45)">Cat15</text><text transform="translate(458,361) rotate(-45)">Cat16</text><text transform="translate(485,361) rotate(-45)">Cat17</text><text transform="translate(512,361) rotate(-45)">Cat18</text><text transform="translate(539,361) rotate(-45)">Cat19</text><text transform="translate(566,361) rotate(-45)">Cat20</text><text transform="translate(593,361) rotate(-45)">Cat21</text><text transform="translate(620,361) rotate(-45)">Cat22</text><text transform="translate(647,361) rotate(-45)">Cat23</text><text transform="translate(674,361) rotate(-45)">Cat24</text></g><g aria-label="rule" stroke="#999999" transform="translate(0,0.5)"><line x1="0" x2="720" y1="361" y2="361"></line></g><g aria-label="bar" fill="#0072B2"><rect x="53" width="22" y="258.09999999999997" height="102.90000000000003" data-series="Series"></rect><rect x="80" width="22" y="223.79999999999998" height="137.20000000000002" data-series="Series"></rect><rect x="107" width="22" y="189.5" height="171.5" data-series="Series"></rect><rect x="134" width="22" y="155.20000000000002" height="205.79999999999998" data-series="Series"></rect><rect x="161" width="22" y="120.9" height="240.1" data-series="Series"></rect><rect x="188" width="22" y="86.6" height="274.4" data-series="Series"></rect><rect x="215" width="22" y="292.40000000000003" height="68.59999999999997" data-series="Series"></rect><rect x="242" width="22" y="258.09999999999997" height="102.90000000000003" data-series="Series"></rect><rect x="269" width="22" y="223.79999999999998" height="137.20000000000002" data-series="Series"></rect><rect x="296" width="22" y="189.5" height="171.5" data-series="Series"></rect><rect x="323" width="22" y="155.20000000000002" height="205.79999999999998" data-series="Series"></rect><rect x="350" width="22" y="120.9" height="240.1" data-series="Series"></rect><rect x="377" width="22" y="86.6" height="274.4" data-series="Series"></rect><rect x="404" width="22" y="292.40000000000003" height="68.59999999999997" data-series="Series"></rect><rect x="431" width="22" y="258.09999999999997" height="102.90000000000003" data-series="Series"></rect><rect x="458" width="22" y="223.79999999999998" height="137.20000000000002" data-series="Series"></rect><rect x="485" width="22" y="189.5" height="171.5" data-series="Series"></rect><rect x="512" width="22" y="155.20000000000002" height="205.79999999999998" data-series="Series"></rect><rect x="539" width="22" y="120.9" height="240.1" data-series="Series"></rect><rect x="566" width="22" y="86.6" height="274.4" data-series="Series"></rect><rect x="593" width="22" y="292.40000000000003" height="68.59999999999997" data-series="Series"></rect><rect x="620" width="22" y="258.09999999999997" height="102.90000000000003" data-series="Series"></rect><rect x="647" width="22" y="223.79999999999998" height="137.20000000000002" data-series="Series"></rect><rect x="674" width="22" y="189.5" height="171.5" data-series="Series"></rect></g></svg>