<svg class="tblchart" fill="currentColor" font-family="system-ui, sans-serif" font-size="10" text-anchor="middle" width="720" height="400" viewBox="0 0 720 400" style="background: transparent; color: rgb(74, 74, 74); font-family: Figtree, &quot;Source Sans 3&quot;, system-ui, -apple-system, &quot;Segoe UI&quot;, Arial, sans-serif; font-size: 10.5px; overflow: visible;" data-margin-left="74" data-margin-right="16" data-margin-top="18" data-margin-bottom="26"><style>:where(.tblchart) {
  --plot-background: white;
  display: block;
  height: auto;
  height: intrinsic;
  max-width: 100%;
}
:where(.tblchart text),
:where(.tblchart tspan) {
  white-space: pre;
}</style><g aria-label="rule" transform="translate(0.5,0)"><g class="tbl-gridline" stroke="#F0F0F0" transform="translate(0,0)"><line x1="179" x2="179" y1="10" y2="374"></line><line x1="284" x2="284" y1="10" y2="374"></line><line x1="389" x2="389" y1="10" y2="374"></line><line x1="494" x2="494" y1="10" y2="374"></line><line x1="599.0000000000001" x2="599.0000000000001" y1="10" y2="374"></line><line x1="704" x2="704" y1="10" y2="374"></line></g></g><g aria-label="text" transform="translate(0.5,12.5)"><g class="tbl-x-tick-label" fill="#666666" font-size="10.5" font-weight="500" transform="translate(0,256)"><text transform="translate(74,118)">0%</text><text transform="translate(179,118)">1%</text><text transform="translate(284,118)">2%</text><text transform="translate(389,118)">3%</text><text transform="translate(494,118)">4%</text><text transform="translate(599.0000000000001,118)">5%</text><text transform="translate(704,118)">6%</text></g></g><g aria-label="text" transform="translate(-73.5,0.5)"><g class="tbl-cat-label" fill="#666666" text-anchor="start" font-size="13" font-weight="500" transform="translate(0,0)"><text y="0.32em" transform="translate(74,68)" data-category="Northeast">Northeast</text></g><g class="tbl-cat-label" fill="#666666" text-anchor="start" font-size="13" font-weight="500" transform="translate(0,125)"><text y="0.32em" transform="translate(74,68)" data-category="Midwest">Midwest</text></g><g class="tbl-cat-label" fill="#666666" text-anchor="start" font-size="13" font-weight="500" transform="translate(0,250)"><text y="0.32em" transform="translate(74,68)" data-category="South">South</text></g></g><g aria-label="rule" transform="translate(0.5,0)"><g class="tbl-zero-baseline" stroke="#999999" transform="translate(0,0)"><line x1="74" x2="74" y1="18" y2="374"></line></g></g><g aria-label="bar"><g transform="translate(0,0)"><rect x="74" width="336" y="19" height="33" fill="#0072B2" data-series="2019"></rect><rect x="74" width="430.49999999999994" y="52" height="33" fill="#E69F00" data-series="2022"></rect><rect x="74" width="503.9999999999999" y="85" height="33" fill="#8856BF" data-series="2025"></rect></g><g transform="translate(0,125)"><rect x="74" width="220.5" y="19" height="33" fill="#0072B2" data-series="2019"></rect><rect x="74" width="0" y="52" height="33" fill="#E69F00" data-series="2022"></rect><rect x="74" width="346.49999999999994" y="85" height="33" fill="#8856BF" data-series="2025"></rect></g><g transform="translate(0,250)"><rect x="74" width="472.5" y="19" height="33" fill="#0072B2" data-series="2019"></rect><rect x="74" width="525.0000000000001" y="52" height="33" fill="#E69F00" data-series="2022"></rect><rect x="74" width="588" y="85" height="33" fill="#8856BF" data-series="2025"></rect></g></g></svg>