<svg class="tblchart-facet" fill="currentColor" font-family="system-ui, sans-serif" font-size="10" text-anchor="middle" width="720" height="460" viewBox="0 0 720 460" style="background: transparent; color: rgb(74, 74, 74); font-family: Figtree, &quot;Source Sans 3&quot;, system-ui, -apple-system, &quot;Segoe UI&quot;, Arial, sans-serif; font-size: 10.5px; overflow: visible;" data-margin-left="44" data-margin-right="16" data-margin-top="18" data-margin-bottom="38"><style>:where(.tblchart-facet) {
  --plot-background: white;
  display: block;
  height: auto;
  height: intrinsic;
  max-width: 100%;
}
:where(.tblchart-facet text),
:where(.tblchart-facet tspan) {
  white-space: pre;
}</style><g aria-label="rule" transform="translate(0,0.5)"><g stroke="#F0F0F0" transform="translate(1,1)"><line x1="0" x2="376" y1="150" y2="150"></line><line x1="0" x2="376" y1="106" y2="106"></line><line x1="0" x2="376" y1="62" y2="62"></line><line x1="0" x2="376" y1="18" y2="18"></line></g><g stroke="#F0F0F0" transform="translate(1,227)"><line x1="0" x2="376" y1="150" y2="150"></line><line x1="0" x2="376" y1="106" y2="106"></line><line x1="0" x2="376" y1="62" y2="62"></line><line x1="0" x2="376" y1="18" y2="18"></line></g><g stroke="#F0F0F0" transform="translate(344,1)"><line x1="0" x2="376" y1="150" y2="150"></line><line x1="0" x2="376" y1="106" y2="106"></line><line x1="0" x2="376" y1="62" y2="62"></line><line x1="0" x2="376" y1="18" y2="18"></line></g><g stroke="#F0F0F0" transform="translate(344,227)"><line x1="0" x2="376" y1="150" y2="150"></line><line x1="0" x2="376" y1="106" y2="106"></line><line x1="0" x2="376" y1="62" y2="62"></line><line x1="0" x2="376" y1="18" y2="18"></line></g></g><g aria-label="text" transform="translate(-43.5,-5.5)"><g class="tbl-y-tick-label" fill="#666666" text-anchor="start" font-size="10.5" font-weight="500" transform="translate(1,1)"><text y="0.32em" transform="translate(44,194)">0</text><text y="0.32em" transform="translate(44,150)">5</text><text y="0.32em" transform="translate(44,106)">10</text><text y="0.32em" transform="translate(44,62)">15</text><text y="0.32em" transform="translate(44,18)">20</text></g><g class="tbl-y-tick-label" fill="#666666" text-anchor="start" font-size="10.5" font-weight="500" transform="translate(1,227)"><text y="0.32em" transform="translate(44,194)">0</text><text y="0.32em" transform="translate(44,150)">5</text><text y="0.32em" transform="translate(44,106)">10</text><text y="0.32em" transform="translate(44,62)">15</text><text y="0.32em" transform="translate(44,18)">20</text></g></g><g aria-label="text" transform="translate(0.5,12.5)"><g class="tbl-x-axis-label" fill="#666666" font-size="10.5" font-weight="500" transform="translate(1,227)"><text transform="translate(44,194)">Jan</text><text transform="translate(96.47445255474452,194)">Jul</text><text transform="translate(149.52554744525548,194)">Jan</text><text transform="translate(201.7116788321168,194)">Jul</text><text transform="translate(254.7627737226277,194)">Jan</text><text transform="translate(306.94890510948903,194)">Jul</text><text transform="translate(360,194)">Jan</text></g><g class="tbl-x-axis-label" fill="#666666" font-size="10.5" font-weight="500" transform="translate(344,227)"><text transform="translate(44,194)">Jan</text><text transform="translate(96.47445255474452,194)">Jul</text><text transform="translate(149.52554744525548,194)">Jan</text><text transform="translate(201.7116788321168,194)">Jul</text><text transform="translate(254.7627737226277,194)">Jan</text><text transform="translate(306.94890510948903,194)">Jul</text><text transform="translate(360,194)">Jan</text></g></g><g aria-label="text" transform="translate(0.5,24.5)"><g class="tbl-x-axis-label" fill="#666666" font-size="10.5" font-weight="500" transform="translate(1,227)"><text transform="translate(44,194)">2020</text><text transform="translate(149.52554744525548,194)">2021</text><text transform="translate(254.7627737226277,194)">2022</text><text transform="translate(360,194)">2023</text></g><g class="tbl-x-axis-label" fill="#666666" font-size="10.5" font-weight="500" transform="translate(344,227)"><text transform="translate(44,194)">2020</text><text transform="translate(149.52554744525548,194)">2021</text><text transform="translate(254.7627737226277,194)">2022</text><text transform="translate(360,194)">2023</text></g></g><g aria-label="rule" transform="translate(0,0.5)"><g stroke="#999999" transform="translate(1,1)"><line x1="0" x2="376" y1="194" y2="194"></line></g><g stroke="#999999" transform="translate(1,227)"><line x1="0" x2="376" y1="194" y2="194"></line></g><g stroke="#999999" transform="translate(344,1)"><line x1="0" x2="376" y1="194" y2="194"></line></g><g stroke="#999999" transform="translate(344,227)"><line x1="0" x2="376" y1="194" y2="194"></line></g></g><g aria-label="line" transform="translate(0.5,0.5)"><g fill="none" stroke="#0072B2" stroke-width="2" stroke-linejoin="round" stroke-linecap="round" transform="translate(1,1)"><path d="M44,106L149.526,70.8L254.763,88.4L360,35.6"></path></g><g fill="none" stroke="#0072B2" stroke-width="2" stroke-linejoin="round" stroke-linecap="round" transform="translate(1,227)"><path d="M44,62L149.526,88.4L254.763,53.2L360,18"></path></g><g fill="none" stroke="#0072B2" stroke-width="2" stroke-linejoin="round" stroke-linecap="round" transform="translate(344,1)"><path d="M44,123.6L149.526,114.8L254.763,79.6L360,97.2"></path></g><g fill="none" stroke="#0072B2" stroke-width="2" stroke-linejoin="round" stroke-linecap="round" transform="translate(344,227)"><path d="M44,141.2L149.526,97.2L254.763,114.8L360,70.8"></path></g></g><g aria-label="text" transform="translate(0.5,-7.5)"><g class="tbl-pane-title" fill="#4A4A4A" text-anchor="start" font-size="11" font-weight="700" transform="translate(1,1)"><text y="0.71em" transform="translate(44,18)">Northeast</text></g><g class="tbl-pane-title" fill="#4A4A4A" text-anchor="start" font-size="11" font-weight="700" transform="translate(1,227)"><text y="0.71em" transform="translate(44,18)">South</text></g><g class="tbl-pane-title" fill="#4A4A4A" text-anchor="start" font-size="11" font-weight="700" transform="translate(344,1)"><text y="0.71em" transform="translate(44,18)">Midwest</text></g><g class="tbl-pane-title" fill="#4A4A4A" text-anchor="start" font-size="11" font-weight="700" transform="translate(344,227)"><text y="0.71em" transform="translate(44,18)">West</text></g></g></svg>