<!-- pane: Northeast (Northeast) -->
<svg class="tblchart-p0" fill="currentColor" font-family="system-ui, sans-serif" font-size="10" text-anchor="middle" width="381" height="460" viewBox="0 0 381 460" style="background: transparent; color: rgb(74, 74, 74); font-family: Figtree, &quot;Source Sans 3&quot;, system-ui, -apple-system, &quot;Segoe UI&quot;, Arial, sans-serif; font-size: 10.5px; overflow: visible;" data-margin-left="44" data-margin-right="16" data-margin-top="18" data-margin-bottom="22"><style>:where(.tblchart-p0) {
  --plot-background: white;
  display: block;
  height: auto;
  height: intrinsic;
  max-width: 100%;
}
:where(.tblchart-p0 text),
:where(.tblchart-p0 tspan) {
  white-space: pre;
}</style><g aria-label="rule" stroke="#F0F0F0" transform="translate(0,0.5)"><line x1="0" x2="381" y1="368" y2="368"></line><line x1="0" x2="381" y1="298.00000000000006" y2="298.00000000000006"></line><line x1="0" x2="381" y1="228" y2="228"></line><line x1="0" x2="381" y1="158.00000000000003" y2="158.00000000000003"></line><line x1="0" x2="381" y1="87.99999999999999" y2="87.99999999999999"></line><line x1="0" x2="381" y1="18" y2="18"></line></g><g aria-label="text" class="tbl-y-tick-label" fill="#666666" text-anchor="start" font-size="10.5" font-weight="500" transform="translate(-43.5,-5.5)"><text y="0.32em" transform="translate(44,438)">0%</text><text y="0.32em" transform="translate(44,368)">1%</text><text y="0.32em" transform="translate(44,298.00000000000006)">2%</text><text y="0.32em" transform="translate(44,228)">3%</text><text y="0.32em" transform="translate(44,158.00000000000003)">4%</text><text y="0.32em" transform="translate(44,87.99999999999999)">5%</text><text y="0.32em" transform="translate(44,18)">6%</text></g><g aria-label="text" fill="#666666" font-size="10.5" font-weight="500" transform="translate(40.5,12.5)"><text transform="translate(65,438)">2019</text><text transform="translate(165,438)">2022</text><text transform="translate(265,438)">2025</text></g><g aria-label="rule" stroke="#999999" transform="translate(0,0.5)"><line x1="0" x2="381" y1="438" y2="438"></line></g><g aria-label="bar" fill="#0072B2"><rect x="65" width="80" y="214" height="224" data-series="Effect"></rect><rect x="165" width="80" y="151.00000000000006" height="286.99999999999994" data-series="Effect"></rect><rect x="265" width="80" y="102.00000000000003" height="336" data-series="Effect"></rect></g></svg>

<!-- pane: Midwest (Midwest) -->
<svg class="tblchart-p1" fill="currentColor" font-family="system-ui, sans-serif" font-size="10" text-anchor="middle" width="339" height="460" viewBox="0 0 339 460" style="background: transparent; color: rgb(74, 74, 74); font-family: Figtree, &quot;Source Sans 3&quot;, system-ui, -apple-system, &quot;Segoe UI&quot;, Arial, sans-serif; font-size: 10.5px; overflow: visible;" data-margin-left="2" data-margin-right="16" data-margin-top="18" data-margin-bottom="22"><style>:where(.tblchart-p1) {
  --plot-background: white;
  display: block;
  height: auto;
  height: intrinsic;
  max-width: 100%;
}
:where(.tblchart-p1 text),
:where(.tblchart-p1 tspan) {
  white-space: pre;
}</style><g aria-label="rule" stroke="#F0F0F0" transform="translate(0,0.5)"><line x1="0" x2="339" y1="368" y2="368"></line><line x1="0" x2="339" y1="298.00000000000006" y2="298.00000000000006"></line><line x1="0" x2="339" y1="228" y2="228"></line><line x1="0" x2="339" y1="158.00000000000003" y2="158.00000000000003"></line><line x1="0" x2="339" y1="87.99999999999999" y2="87.99999999999999"></line><line x1="0" x2="339" y1="18" y2="18"></line></g><g aria-label="text" fill="#666666" font-size="10.5" font-weight="500" transform="translate(40.5,12.5)"><text transform="translate(23,438)">2019</text><text transform="translate(123,438)">2022</text><text transform="translate(223,438)">2025</text></g><g aria-label="rule" stroke="#999999" transform="translate(0,0.5)"><line x1="0" x2="339" y1="438" y2="438"></line></g><g aria-label="bar" fill="#0072B2"><rect x="23" width="80" y="291" height="147" data-series="Effect"></rect><rect x="123" width="80" y="256" height="182" data-series="Effect"></rect><rect x="223" width="80" y="207.00000000000003" height="230.99999999999997" data-series="Effect"></rect></g></svg>

<!-- pane: South (South) -->
<svg class="tblchart-p2" fill="currentColor" font-family="system-ui, sans-serif" font-size="10" text-anchor="middle" width="381" height="460" viewBox="0 0 381 460" style="background: transparent; color: rgb(74, 74, 74); font-family: Figtree, &quot;Source Sans 3&quot;, system-ui, -apple-system, &quot;Segoe UI&quot;, Arial, sans-serif; font-size: 10.5px; overflow: visible;" data-margin-left="44" data-margin-right="16" data-margin-top="18" data-margin-bottom="22"><style>:where(.tblchart-p2) {
  --plot-background: white;
  display: block;
  height: auto;
  height: intrinsic;
  max-width: 100%;
}
:where(.tblchart-p2 text),
:where(.tblchart-p2 tspan) {
  white-space: pre;
}</style><g aria-label="rule" stroke="#F0F0F0" transform="translate(0,0.5)"><line x1="0" x2="381" y1="368" y2="368"></line><line x1="0" x2="381" y1="298.00000000000006" y2="298.00000000000006"></line><line x1="0" x2="381" y1="228" y2="228"></line><line x1="0" x2="381" y1="158.00000000000003" y2="158.00000000000003"></line><line x1="0" x2="381" y1="87.99999999999999" y2="87.99999999999999"></line><line x1="0" x2="381" y1="18" y2="18"></line></g><g aria-label="text" class="tbl-y-tick-label" fill="#666666" text-anchor="start" font-size="10.5" font-weight="500" transform="translate(-43.5,-5.5)"><text y="0.32em" transform="translate(44,438)">0%</text><text y="0.32em" transform="translate(44,368)">1%</text><text y="0.32em" transform="translate(44,298.00000000000006)">2%</text><text y="0.32em" transform="translate(44,228)">3%</text><text y="0.32em" transform="translate(44,158.00000000000003)">4%</text><text y="0.32em" transform="translate(44,87.99999999999999)">5%</text><text y="0.32em" transform="translate(44,18)">6%</text></g><g aria-label="text" fill="#666666" font-size="10.5" font-weight="500" transform="translate(40.5,12.5)"><text transform="translate(65,438)">2019</text><text transform="translate(165,438)">2022</text><text transform="translate(265,438)">2025</text></g><g aria-label="rule" stroke="#999999" transform="translate(0,0.5)"><line x1="0" x2="381" y1="438" y2="438"></line></g><g aria-label="bar" fill="#0072B2"><rect x="65" width="80" y="123" height="315" data-series="Effect"></rect><rect x="165" width="80" y="87.99999999999999" height="350" data-series="Effect"></rect><rect x="265" width="80" y="46.00000000000004" height="391.99999999999994" data-series="Effect"></rect></g></svg>

<!-- pane: West (West) -->
<svg class="tblchart-p3" fill="currentColor" font-family="system-ui, sans-serif" font-size="10" text-anchor="middle" width="339" height="460" viewBox="0 0 339 460" style="background: transparent; color: rgb(74, 74, 74); font-family: Figtree, &quot;Source Sans 3&quot;, system-ui, -apple-system, &quot;Segoe UI&quot;, Arial, sans-serif; font-size: 10.5px; overflow: visible;" data-margin-left="2" data-margin-right="16" data-margin-top="18" data-margin-bottom="22"><style>:where(.tblchart-p3) {
  --plot-background: white;
  display: block;
  height: auto;
  height: intrinsic;
  max-width: 100%;
}
:where(.tblchart-p3 text),
:where(.tblchart-p3 tspan) {
  white-space: pre;
}</style><g aria-label="rule" stroke="#F0F0F0" transform="translate(0,0.5)"><line x1="0" x2="339" y1="368" y2="368"></line><line x1="0" x2="339" y1="298.00000000000006" y2="298.00000000000006"></line><line x1="0" x2="339" y1="228" y2="228"></line><line x1="0" x2="339" y1="158.00000000000003" y2="158.00000000000003"></line><line x1="0" x2="339" y1="87.99999999999999" y2="87.99999999999999"></line><line x1="0" x2="339" y1="18" y2="18"></line></g><g aria-label="text" fill="#666666" font-size="10.5" font-weight="500" transform="translate(40.5,12.5)"><text transform="translate(23,438)">2019</text><text transform="translate(123,438)">2022</text><text transform="translate(223,438)">2025</text></g><g aria-label="rule" stroke="#999999" transform="translate(0,0.5)"><line x1="0" x2="339" y1="438" y2="438"></line></g><g aria-label="bar" fill="#0072B2"><rect x="23" width="80" y="311.99999999999994" height="126.00000000000006" data-series="Effect"></rect><rect x="123" width="80" y="284" height="154" data-series="Effect"></rect><rect x="223" width="80" y="234.99999999999997" height="203.00000000000003" data-series="Effect"></rect></g></svg>