<!-- pane: Section 122 Expires (Section 122 Expires) -->
<svg class="tblchart-p0" fill="currentColor" font-family="system-ui, sans-serif" font-size="10" text-anchor="middle" width="569" height="1064" viewBox="0 0 569 1064" style="background: transparent; color: rgb(74, 74, 74); font-family: Figtree, &quot;Source Sans 3&quot;, system-ui, -apple-system, &quot;Segoe UI&quot;, Arial, sans-serif; font-size: 10.5px; overflow: visible;" data-margin-left="240" data-margin-right="16" data-margin-top="22" data-margin-bottom="74"><style>:where(.tblchart-p0) {
  --plot-background: white;
  display: block;
  height: auto;
  height: intrinsic;
  max-width: 100%;
}
:where(.tblchart-p0 text),
:where(.tblchart-p0 tspan) {
  white-space: pre;
}</style><g aria-label="rule" transform="translate(0.5,0)"><g class="tbl-gridline" stroke="#F0F0F0" transform="translate(0,15)"><line x1="318.25" x2="318.25" y1="7" y2="975"></line><line x1="396.5" x2="396.5" y1="7" y2="975"></line><line x1="474.75" x2="474.75" y1="7" y2="975"></line><line x1="553" x2="553" y1="7" y2="975"></line></g></g><g aria-label="text" transform="translate(0.5,12.5)"><g class="tbl-x-tick-label" fill="#666666" font-size="10.5" font-weight="500" transform="translate(0,934)"><text transform="translate(240,56)">0%</text><text transform="translate(318.25,56)">2%</text><text transform="translate(396.5,56)">4%</text><text transform="translate(474.75,56)">6%</text><text transform="translate(553,56)">8%</text></g></g><g aria-label="text" transform="translate(-239.5,0.5)"><g fill="#666666" text-anchor="start" font-size="13" font-weight="500" transform="translate(0,15)"><text y="0.32em" transform="translate(240,39)">Motor vehicles and parts</text></g><g fill="#666666" text-anchor="start" font-size="13" font-weight="500" transform="translate(0,58)"><text transform="translate(240,39)"><tspan x="0" y="-0.18em">Furnishings and durable</tspan><tspan x="0" dy="1em">household equipment</tspan></text></g><g fill="#666666" text-anchor="start" font-size="13" font-weight="500" transform="translate(0,101)"><text y="0.32em" transform="translate(240,39)">Recreational goods and vehicles</text></g><g fill="#666666" text-anchor="start" font-size="13" font-weight="500" transform="translate(0,144)"><text y="0.32em" transform="translate(240,39)">Other durable goods</text></g><g fill="#666666" text-anchor="start" font-size="13" font-weight="500" transform="translate(0,230)"><text y="0.32em" transform="translate(240,39)">Clothing and footwear</text></g><g fill="#666666" text-anchor="start" font-size="13" font-weight="500" transform="translate(0,273)"><text y="0.32em" transform="translate(240,39)">Other nondurable goods</text></g><g fill="#666666" text-anchor="start" font-size="13" font-weight="500" transform="translate(0,316)"><text transform="translate(240,39)"><tspan x="0" y="-0.18em">Food and beverages purchased for</tspan><tspan x="0" dy="1em">off-premises consumption</tspan></text></g><g fill="#666666" text-anchor="start" font-size="13" font-weight="500" transform="translate(0,359)"><text y="0.32em" transform="translate(240,39)">Gasoline and other energy goods</text></g><g fill="#666666" text-anchor="start" font-size="13" font-weight="500" transform="translate(0,445)"><text y="0.32em" transform="translate(240,39)">Net foreign travel</text></g><g fill="#666666" text-anchor="start" font-size="13" font-weight="500" transform="translate(0,488)"><text y="0.32em" transform="translate(240,39)">Transportation services</text></g><g fill="#666666" text-anchor="start" font-size="13" font-weight="500" transform="translate(0,531)"><text y="0.32em" transform="translate(240,39)">Communication</text></g><g fill="#666666" text-anchor="start" font-size="13" font-weight="500" transform="translate(0,574)"><text y="0.32em" transform="translate(240,39)">Household utilities</text></g><g fill="#666666" text-anchor="start" font-size="13" font-weight="500" transform="translate(0,617)"><text y="0.32em" transform="translate(240,39)">Other services</text></g><g fill="#666666" text-anchor="start" font-size="13" font-weight="500" transform="translate(0,660)"><text transform="translate(240,39)"><tspan x="0" y="-0.18em">Final consumption expenditures</tspan><tspan x="0" dy="1em">of NPISH</tspan></text></g><g fill="#666666" text-anchor="start" font-size="13" font-weight="500" transform="translate(0,703)"><text y="0.32em" transform="translate(240,39)">Recreation services</text></g><g fill="#666666" text-anchor="start" font-size="13" font-weight="500" transform="translate(0,746)"><text y="0.32em" transform="translate(240,39)">Food services and accommodations</text></g><g fill="#666666" text-anchor="start" font-size="13" font-weight="500" transform="translate(0,789)"><text y="0.32em" transform="translate(240,39)">Health care</text></g><g fill="#666666" text-anchor="start" font-size="13" font-weight="500" transform="translate(0,832)"><text y="0.32em" transform="translate(240,39)">Education</text></g><g fill="#666666" text-anchor="start" font-size="13" font-weight="500" transform="translate(0,875)"><text y="0.32em" transform="translate(240,39)">Financial services and insurance</text></g><g fill="#666666" text-anchor="start" font-size="13" font-weight="500" transform="translate(0,918)"><text y="0.32em" transform="translate(240,39)">Housing</text></g></g><g aria-label="text" transform="translate(-239.5,-2.5)"><g fill="#1A1A2E" text-anchor="start" font-size="13" font-weight="700" transform="translate(0,187)"><text transform="translate(240,56)">Nondurable goods</text></g><g fill="#1A1A2E" text-anchor="start" font-size="13" font-weight="700" transform="translate(0,402)"><text transform="translate(240,56)">Services</text></g></g><g aria-label="text" transform="translate(-239.5,-9.5)"><g fill="#1A1A2E" text-anchor="start" font-size="13" font-weight="700" transform="translate(0,15)"><text y="0.71em" transform="translate(240,22)">Durable goods</text></g></g><g aria-label="rule" transform="translate(0.5,0)"><g class="tbl-zero-baseline" stroke="#999999" transform="translate(0,15)"><line x1="240" x2="240" y1="7" y2="975"></line></g></g><g aria-label="bar"><g transform="translate(0,15)"><rect x="240" width="173.894975" y="22" height="17" fill="#0072B2" data-series="Pre-Substitution"></rect><rect x="240" width="146.57007499999997" y="39" height="17" fill="#E69F00" data-series="Post-Substitution"></rect></g><g transform="translate(0,58)"><rect x="240" width="82.63982500000003" y="22" height="17" fill="#0072B2" data-series="Pre-Substitution"></rect><rect x="240" width="67.06025" y="39" height="17" fill="#E69F00" data-series="Post-Substitution"></rect></g><g transform="translate(0,101)"><rect x="240" width="68.7348" y="22" height="17" fill="#0072B2" data-series="Pre-Substitution"></rect><rect x="240" width="58.01063750000003" y="39" height="17" fill="#E69F00" data-series="Post-Substitution"></rect></g><g transform="translate(0,144)"><rect x="240" width="52.97525000000002" y="22" height="17" fill="#0072B2" data-series="Pre-Substitution"></rect><rect x="240" width="40.86997500000001" y="39" height="17" fill="#E69F00" data-series="Post-Substitution"></rect></g><g transform="translate(0,230)"><rect x="240" width="141.60120000000006" y="22" height="17" fill="#0072B2" data-series="Pre-Substitution"></rect><rect x="240" width="94.62772500000005" y="39" height="17" fill="#E69F00" data-series="Post-Substitution"></rect></g><g transform="translate(0,273)"><rect x="240" width="35.63504999999998" y="22" height="17" fill="#0072B2" data-series="Pre-Substitution"></rect><rect x="240" width="26.464150000000018" y="39" height="17" fill="#E69F00" data-series="Post-Substitution"></rect></g><g transform="translate(0,316)"><rect x="240" width="16.702462500000024" y="22" height="17" fill="#0072B2" data-series="Pre-Substitution"></rect><rect x="240" width="14.660137500000019" y="39" height="17" fill="#E69F00" data-series="Post-Substitution"></rect></g><g transform="translate(0,359)"><rect x="240" width="13.494212500000003" y="22" height="17" fill="#0072B2" data-series="Pre-Substitution"></rect><rect x="240" width="11.940949999999987" y="39" height="17" fill="#E69F00" data-series="Post-Substitution"></rect></g><g transform="translate(0,445)"><rect x="240" width="29.198987500000044" y="22" height="17" fill="#0072B2" data-series="Pre-Substitution"></rect><rect x="240" width="24.218375000000037" y="39" height="17" fill="#E69F00" data-series="Post-Substitution"></rect></g><g transform="translate(0,488)"><rect x="240" width="28.905550000000005" y="22" height="17" fill="#0072B2" data-series="Pre-Substitution"></rect><rect x="240" width="27.105799999999988" y="39" height="17" fill="#E69F00" data-series="Post-Substitution"></rect></g><g transform="translate(0,531)"><rect x="240" width="17.348025000000007" y="22" height="17" fill="#0072B2" data-series="Pre-Substitution"></rect><rect x="240" width="14.961400000000026" y="39" height="17" fill="#E69F00" data-series="Post-Substitution"></rect></g><g transform="translate(0,574)"><rect x="240" width="13.885462500000017" y="22" height="17" fill="#0072B2" data-series="Pre-Substitution"></rect><rect x="240" width="12.28524999999999" y="39" height="17" fill="#E69F00" data-series="Post-Substitution"></rect></g><g transform="translate(0,617)"><rect x="240" width="12.433925000000016" y="22" height="17" fill="#0072B2" data-series="Pre-Substitution"></rect><rect x="240" width="10.9510875" y="39" height="17" fill="#E69F00" data-series="Post-Substitution"></rect></g><g transform="translate(0,660)"><rect x="240" width="11.976162500000015" y="22" height="17" fill="#0072B2" data-series="Pre-Substitution"></rect><rect x="240" width="10.622437500000018" y="39" height="17" fill="#E69F00" data-series="Post-Substitution"></rect></g><g transform="translate(0,703)"><rect x="240" width="11.870524999999986" y="22" height="17" fill="#0072B2" data-series="Pre-Substitution"></rect><rect x="240" width="10.266399999999976" y="39" height="17" fill="#E69F00" data-series="Post-Substitution"></rect></g><g transform="translate(0,746)"><rect x="240" width="10.520712500000002" y="22" height="17" fill="#0072B2" data-series="Pre-Substitution"></rect><rect x="240" width="9.249150000000014" y="39" height="17" fill="#E69F00" data-series="Post-Substitution"></rect></g><g transform="translate(0,789)"><rect x="240" width="9.616925000000009" y="22" height="17" fill="#0072B2" data-series="Pre-Substitution"></rect><rect x="240" width="8.181037500000002" y="39" height="17" fill="#E69F00" data-series="Post-Substitution"></rect></g><g transform="translate(0,832)"><rect x="240" width="8.216250000000002" y="22" height="17" fill="#0072B2" data-series="Pre-Substitution"></rect><rect x="240" width="7.285074999999978" y="39" height="17" fill="#E69F00" data-series="Post-Substitution"></rect></g><g transform="translate(0,875)"><rect x="240" width="3.8107749999999783" y="22" height="17" fill="#0072B2" data-series="Pre-Substitution"></rect><rect x="240" width="3.3686624999999992" y="39" height="17" fill="#E69F00" data-series="Post-Substitution"></rect></g><g transform="translate(0,918)"><rect x="240" width="1.960162500000024" y="22" height="17" fill="#0072B2" data-series="Pre-Substitution"></rect><rect x="240" width="1.7332375000000013" y="39" height="17" fill="#E69F00" data-series="Post-Substitution"></rect></g></g></svg>

<!-- pane: Section 122 Extended (Section 122 Extended) -->
<svg class="tblchart-p1" fill="currentColor" font-family="system-ui, sans-serif" font-size="10" text-anchor="middle" width="331" height="1064" viewBox="0 0 331 1064" style="background: transparent; color: rgb(74, 74, 74); font-family: Figtree, &quot;Source Sans 3&quot;, system-ui, -apple-system, &quot;Segoe UI&quot;, Arial, sans-serif; font-size: 10.5px; overflow: visible;" data-margin-left="2" data-margin-right="16" data-margin-top="22" data-margin-bottom="74"><style>:where(.tblchart-p1) {
  --plot-background: white;
  display: block;
  height: auto;
  height: intrinsic;
  max-width: 100%;
}
:where(.tblchart-p1 text),
:where(.tblchart-p1 tspan) {
  white-space: pre;
}</style><g aria-label="rule" transform="translate(0.5,0)"><g class="tbl-gridline" stroke="#F0F0F0" transform="translate(0,15)"><line x1="80.25" x2="80.25" y1="7" y2="975"></line><line x1="158.5" x2="158.5" y1="7" y2="975"></line><line x1="236.75" x2="236.75" y1="7" y2="975"></line><line x1="315" x2="315" y1="7" y2="975"></line></g></g><g aria-label="text" transform="translate(0.5,12.5)"><g class="tbl-x-tick-label" fill="#666666" font-size="10.5" font-weight="500" transform="translate(0,934)"><text transform="translate(2,56)">0%</text><text transform="translate(80.25,56)">2%</text><text transform="translate(158.5,56)">4%</text><text transform="translate(236.75,56)">6%</text><text transform="translate(315,56)">8%</text></g></g><g aria-label="rule" transform="translate(0.5,0)"><g class="tbl-zero-baseline" stroke="#999999" transform="translate(0,15)"><line x1="2" x2="2" y1="7" y2="975"></line></g></g><g aria-label="bar"><g transform="translate(0,15)"><rect x="2" width="181.8882125" y="22" height="17" fill="#0072B2" data-series="Pre-Substitution"></rect><rect x="2" width="153.878625" y="39" height="17" fill="#E69F00" data-series="Post-Substitution"></rect></g><g transform="translate(0,58)"><rect x="2" width="125.6186375" y="22" height="17" fill="#0072B2" data-series="Pre-Substitution"></rect><rect x="2" width="98.242875" y="39" height="17" fill="#E69F00" data-series="Post-Substitution"></rect></g><g transform="translate(0,101)"><rect x="2" width="92.499325" y="22" height="17" fill="#0072B2" data-series="Pre-Substitution"></rect><rect x="2" width="80.5349" y="39" height="17" fill="#E69F00" data-series="Post-Substitution"></rect></g><g transform="translate(0,144)"><rect x="2" width="130.372325" y="22" height="17" fill="#0072B2" data-series="Pre-Substitution"></rect><rect x="2" width="106.7447375" y="39" height="17" fill="#E69F00" data-series="Post-Substitution"></rect></g><g transform="translate(0,230)"><rect x="2" width="292.240275" y="22" height="17" fill="#0072B2" data-series="Pre-Substitution"></rect><rect x="2" width="223.99845000000002" y="39" height="17" fill="#E69F00" data-series="Post-Substitution"></rect></g><g transform="translate(0,273)"><rect x="2" width="67.6823375" y="22" height="17" fill="#0072B2" data-series="Pre-Substitution"></rect><rect x="2" width="48.741925" y="39" height="17" fill="#E69F00" data-series="Post-Substitution"></rect></g><g transform="translate(0,316)"><rect x="2" width="40.635225" y="22" height="17" fill="#0072B2" data-series="Pre-Substitution"></rect><rect x="2" width="34.7156125" y="39" height="17" fill="#E69F00" data-series="Post-Substitution"></rect></g><g transform="translate(0,359)"><rect x="2" width="16.158625" y="22" height="17" fill="#0072B2" data-series="Pre-Substitution"></rect><rect x="2" width="14.2923625" y="39" height="17" fill="#E69F00" data-series="Post-Substitution"></rect></g><g transform="translate(0,445)"><rect x="2" width="42.45845" y="22" height="17" fill="#0072B2" data-series="Pre-Substitution"></rect><rect x="2" width="36.4958" y="39" height="17" fill="#E69F00" data-series="Post-Substitution"></rect></g><g transform="translate(0,488)"><rect x="2" width="32.03946249999999" y="22" height="17" fill="#0072B2" data-series="Pre-Substitution"></rect><rect x="2" width="30.0362625" y="39" height="17" fill="#E69F00" data-series="Post-Substitution"></rect></g><g transform="translate(0,531)"><rect x="2" width="22.1604" y="22" height="17" fill="#0072B2" data-series="Pre-Substitution"></rect><rect x="2" width="19.832462500000002" y="39" height="17" fill="#E69F00" data-series="Post-Substitution"></rect></g><g transform="translate(0,574)"><rect x="2" width="16.9919875" y="22" height="17" fill="#0072B2" data-series="Pre-Substitution"></rect><rect x="2" width="15.243100000000002" y="39" height="17" fill="#E69F00" data-series="Post-Substitution"></rect></g><g transform="translate(0,617)"><rect x="2" width="18.0405375" y="22" height="17" fill="#0072B2" data-series="Pre-Substitution"></rect><rect x="2" width="15.798675" y="39" height="17" fill="#E69F00" data-series="Post-Substitution"></rect></g><g transform="translate(0,660)"><rect x="2" width="16.9919875" y="22" height="17" fill="#0072B2" data-series="Pre-Substitution"></rect><rect x="2" width="15.129637499999998" y="39" height="17" fill="#E69F00" data-series="Post-Substitution"></rect></g><g transform="translate(0,703)"><rect x="2" width="17.6023375" y="22" height="17" fill="#0072B2" data-series="Pre-Substitution"></rect><rect x="2" width="15.446549999999998" y="39" height="17" fill="#E69F00" data-series="Post-Substitution"></rect></g><g transform="translate(0,746)"><rect x="2" width="19.70335" y="22" height="17" fill="#0072B2" data-series="Pre-Substitution"></rect><rect x="2" width="17.258037499999997" y="39" height="17" fill="#E69F00" data-series="Post-Substitution"></rect></g><g transform="translate(0,789)"><rect x="2" width="17.0389375" y="22" height="17" fill="#0072B2" data-series="Pre-Substitution"></rect><rect x="2" width="14.6288375" y="39" height="17" fill="#E69F00" data-series="Post-Substitution"></rect></g><g transform="translate(0,832)"><rect x="2" width="11.651425" y="22" height="17" fill="#0072B2" data-series="Pre-Substitution"></rect><rect x="2" width="10.395512499999999" y="39" height="17" fill="#E69F00" data-series="Post-Substitution"></rect></g><g transform="translate(0,875)"><rect x="2" width="5.000175" y="22" height="17" fill="#0072B2" data-series="Pre-Substitution"></rect><rect x="2" width="4.503287499999999" y="39" height="17" fill="#E69F00" data-series="Post-Substitution"></rect></g><g transform="translate(0,918)"><rect x="2" width="2.6487625" y="22" height="17" fill="#0072B2" data-series="Pre-Substitution"></rect><rect x="2" width="2.3514125000000003" y="39" height="17" fill="#E69F00" data-series="Post-Substitution"></rect></g></g></svg>