<!-- pane: Section 122 Expires (Section 122 Expires) -->
<svg class="tblchart-p0" fill="currentColor" font-family="system-ui, sans-serif" font-size="10" text-anchor="middle" width="569" height="1064" viewBox="0 0 569 1064" style="background: transparent; color: rgb(74, 74, 74); font-family: Figtree, &quot;Source Sans 3&quot;, system-ui, -apple-system, &quot;Segoe UI&quot;, Arial, sans-serif; font-size: 10.5px; overflow: visible;" data-margin-left="240" data-margin-right="16" data-margin-top="34" data-margin-bottom="74"><style>:where(.tblchart-p0) {
  --plot-background: white;
  display: block;
  height: auto;
  height: intrinsic;
  max-width: 100%;
}
:where(.tblchart-p0 text),
:where(.tblchart-p0 tspan) {
  white-space: pre;
}</style><g aria-label="rule" transform="translate(0.5,0)"><g class="tbl-gridline" stroke="#F0F0F0" transform="translate(0,9)"><line x1="318.25" x2="318.25" y1="25" y2="981"></line><line x1="396.5" x2="396.5" y1="25" y2="981"></line><line x1="474.75" x2="474.75" y1="25" y2="981"></line><line x1="553" x2="553" y1="25" y2="981"></line></g></g><g aria-label="text" transform="translate(0.5,12.5)"><g class="tbl-x-tick-label" fill="#666666" font-size="10.5" font-weight="500" transform="translate(0,922)"><text transform="translate(240,68)">0%</text><text transform="translate(318.25,68)">2%</text><text transform="translate(396.5,68)">4%</text><text transform="translate(474.75,68)">6%</text><text transform="translate(553,68)">8%</text></g></g><g aria-label="text" transform="translate(-239.5,0.5)"><g fill="#666666" text-anchor="start" font-size="10.5" font-weight="500" transform="translate(0,9)"><text y="0.32em" transform="translate(240,51)">Motor vehicles and parts</text></g><g fill="#666666" text-anchor="start" font-size="10.5" font-weight="500" transform="translate(0,52)"><text transform="translate(240,51)"><tspan x="0" y="-0.18em">Furnishings and durable household</tspan><tspan x="0" dy="1em">equipment</tspan></text></g><g fill="#666666" text-anchor="start" font-size="10.5" font-weight="500" transform="translate(0,95)"><text y="0.32em" transform="translate(240,51)">Recreational goods and vehicles</text></g><g fill="#666666" text-anchor="start" font-size="10.5" font-weight="500" transform="translate(0,138)"><text y="0.32em" transform="translate(240,51)">Other durable goods</text></g><g fill="#666666" text-anchor="start" font-size="10.5" font-weight="500" transform="translate(0,224)"><text y="0.32em" transform="translate(240,51)">Clothing and footwear</text></g><g fill="#666666" text-anchor="start" font-size="10.5" font-weight="500" transform="translate(0,267)"><text y="0.32em" transform="translate(240,51)">Other nondurable goods</text></g><g fill="#666666" text-anchor="start" font-size="10.5" font-weight="500" transform="translate(0,310)"><text transform="translate(240,51)"><tspan x="0" y="-0.18em">Food and beverages purchased for</tspan><tspan x="0" dy="1em">off-premises consumption</tspan></text></g><g fill="#666666" text-anchor="start" font-size="10.5" font-weight="500" transform="translate(0,353)"><text y="0.32em" transform="translate(240,51)">Gasoline and other energy goods</text></g><g fill="#666666" text-anchor="start" font-size="10.5" font-weight="500" transform="translate(0,439)"><text y="0.32em" transform="translate(240,51)">Net foreign travel</text></g><g fill="#666666" text-anchor="start" font-size="10.5" font-weight="500" transform="translate(0,482)"><text y="0.32em" transform="translate(240,51)">Transportation services</text></g><g fill="#666666" text-anchor="start" font-size="10.5" font-weight="500" transform="translate(0,525)"><text y="0.32em" transform="translate(240,51)">Communication</text></g><g fill="#666666" text-anchor="start" font-size="10.5" font-weight="500" transform="translate(0,568)"><text y="0.32em" transform="translate(240,51)">Household utilities</text></g><g fill="#666666" text-anchor="start" font-size="10.5" font-weight="500" transform="translate(0,611)"><text y="0.32em" transform="translate(240,51)">Other services</text></g><g fill="#666666" text-anchor="start" font-size="10.5" font-weight="500" transform="translate(0,654)"><text y="0.32em" transform="translate(240,51)">Final consumption expenditures of NPISH</text></g><g fill="#666666" text-anchor="start" font-size="10.5" font-weight="500" transform="translate(0,697)"><text y="0.32em" transform="translate(240,51)">Recreation services</text></g><g fill="#666666" text-anchor="start" font-size="10.5" font-weight="500" transform="translate(0,740)"><text y="0.32em" transform="translate(240,51)">Food services and accommodations</text></g><g fill="#666666" text-anchor="start" font-size="10.5" font-weight="500" transform="translate(0,783)"><text y="0.32em" transform="translate(240,51)">Health care</text></g><g fill="#666666" text-anchor="start" font-size="10.5" font-weight="500" transform="translate(0,826)"><text y="0.32em" transform="translate(240,51)">Education</text></g><g fill="#666666" text-anchor="start" font-size="10.5" font-weight="500" transform="translate(0,869)"><text y="0.32em" transform="translate(240,51)">Financial services and insurance</text></g><g fill="#666666" text-anchor="start" font-size="10.5" font-weight="500" transform="translate(0,912)"><text y="0.32em" transform="translate(240,51)">Housing</text></g></g><g aria-label="text" transform="translate(-239.5,-2.5)"><g fill="#1A1A2E" text-anchor="start" font-size="10.5" font-weight="700" transform="translate(0,181)"><text transform="translate(240,68)">Nondurable goods</text></g><g fill="#1A1A2E" text-anchor="start" font-size="10.5" font-weight="700" transform="translate(0,396)"><text transform="translate(240,68)">Services</text></g></g><g aria-label="text" transform="translate(-239.5,-13.5)"><g fill="#1A1A2E" text-anchor="start" font-size="10.5" font-weight="700" transform="translate(0,9)"><text y="0.71em" transform="translate(240,34)">Durable goods</text></g></g><g aria-label="rule" transform="translate(0.5,0)"><g class="tbl-zero-baseline" stroke="#999999" transform="translate(0,9)"><line x1="240" x2="240" y1="25" y2="981"></line></g></g><g aria-label="bar"><g transform="translate(0,9)"><rect x="240" width="173.894975" y="34" height="17" fill="#0072B2" data-series="Pre-Substitution"></rect><rect x="240" width="146.57007499999997" y="51" height="17" fill="#E69F00" data-series="Post-Substitution"></rect></g><g transform="translate(0,52)"><rect x="240" width="82.63982500000003" y="34" height="17" fill="#0072B2" data-series="Pre-Substitution"></rect><rect x="240" width="67.06025" y="51" height="17" fill="#E69F00" data-series="Post-Substitution"></rect></g><g transform="translate(0,95)"><rect x="240" width="68.7348" y="34" height="17" fill="#0072B2" data-series="Pre-Substitution"></rect><rect x="240" width="58.01063750000003" y="51" height="17" fill="#E69F00" data-series="Post-Substitution"></rect></g><g transform="translate(0,138)"><rect x="240" width="52.97525000000002" y="34" height="17" fill="#0072B2" data-series="Pre-Substitution"></rect><rect x="240" width="40.86997500000001" y="51" height="17" fill="#E69F00" data-series="Post-Substitution"></rect></g><g transform="translate(0,224)"><rect x="240" width="141.60120000000006" y="34" height="17" fill="#0072B2" data-series="Pre-Substitution"></rect><rect x="240" width="94.62772500000005" y="51" height="17" fill="#E69F00" data-series="Post-Substitution"></rect></g><g transform="translate(0,267)"><rect x="240" width="35.63504999999998" y="34" height="17" fill="#0072B2" data-series="Pre-Substitution"></rect><rect x="240" width="26.464150000000018" y="51" height="17" fill="#E69F00" data-series="Post-Substitution"></rect></g><g transform="translate(0,310)"><rect x="240" width="16.702462500000024" y="34" height="17" fill="#0072B2" data-series="Pre-Substitution"></rect><rect x="240" width="14.660137500000019" y="51" height="17" fill="#E69F00" data-series="Post-Substitution"></rect></g><g transform="translate(0,353)"><rect x="240" width="13.494212500000003" y="34" height="17" fill="#0072B2" data-series="Pre-Substitution"></rect><rect x="240" width="11.940949999999987" y="51" height="17" fill="#E69F00" data-series="Post-Substitution"></rect></g><g transform="translate(0,439)"><rect x="240" width="29.198987500000044" y="34" height="17" fill="#0072B2" data-series="Pre-Substitution"></rect><rect x="240" width="24.218375000000037" y="51" height="17" fill="#E69F00" data-series="Post-Substitution"></rect></g><g transform="translate(0,482)"><rect x="240" width="28.905550000000005" y="34" height="17" fill="#0072B2" data-series="Pre-Substitution"></rect><rect x="240" width="27.105799999999988" y="51" height="17" fill="#E69F00" data-series="Post-Substitution"></rect></g><g transform="translate(0,525)"><rect x="240" width="17.348025000000007" y="34" height="17" fill="#0072B2" data-series="Pre-Substitution"></rect><rect x="240" width="14.961400000000026" y="51" height="17" fill="#E69F00" data-series="Post-Substitution"></rect></g><g transform="translate(0,568)"><rect x="240" width="13.885462500000017" y="34" height="17" fill="#0072B2" data-series="Pre-Substitution"></rect><rect x="240" width="12.28524999999999" y="51" height="17" fill="#E69F00" data-series="Post-Substitution"></rect></g><g transform="translate(0,611)"><rect x="240" width="12.433925000000016" y="34" height="17" fill="#0072B2" data-series="Pre-Substitution"></rect><rect x="240" width="10.9510875" y="51" height="17" fill="#E69F00" data-series="Post-Substitution"></rect></g><g transform="translate(0,654)"><rect x="240" width="11.976162500000015" y="34" height="17" fill="#0072B2" data-series="Pre-Substitution"></rect><rect x="240" width="10.622437500000018" y="51" height="17" fill="#E69F00" data-series="Post-Substitution"></rect></g><g transform="translate(0,697)"><rect x="240" width="11.870524999999986" y="34" height="17" fill="#0072B2" data-series="Pre-Substitution"></rect><rect x="240" width="10.266399999999976" y="51" height="17" fill="#E69F00" data-series="Post-Substitution"></rect></g><g transform="translate(0,740)"><rect x="240" width="10.520712500000002" y="34" height="17" fill="#0072B2" data-series="Pre-Substitution"></rect><rect x="240" width="9.249150000000014" y="51" height="17" fill="#E69F00" data-series="Post-Substitution"></rect></g><g transform="translate(0,783)"><rect x="240" width="9.616925000000009" y="34" height="17" fill="#0072B2" data-series="Pre-Substitution"></rect><rect x="240" width="8.181037500000002" y="51" height="17" fill="#E69F00" data-series="Post-Substitution"></rect></g><g transform="translate(0,826)"><rect x="240" width="8.216250000000002" y="34" height="17" fill="#0072B2" data-series="Pre-Substitution"></rect><rect x="240" width="7.285074999999978" y="51" height="17" fill="#E69F00" data-series="Post-Substitution"></rect></g><g transform="translate(0,869)"><rect x="240" width="3.8107749999999783" y="34" height="17" fill="#0072B2" data-series="Pre-Substitution"></rect><rect x="240" width="3.3686624999999992" y="51" height="17" fill="#E69F00" data-series="Post-Substitution"></rect></g><g transform="translate(0,912)"><rect x="240" width="1.960162500000024" y="34" height="17" fill="#0072B2" data-series="Pre-Substitution"></rect><rect x="240" width="1.7332375000000013" y="51" height="17" fill="#E69F00" data-series="Post-Substitution"></rect></g></g></svg>

<!-- pane: Section 122 Extended (Section 122 Extended) -->
<svg class="tblchart-p1" fill="currentColor" font-family="system-ui, sans-serif" font-size="10" text-anchor="middle" width="331" height="1064" viewBox="0 0 331 1064" style="background: transparent; color: rgb(74, 74, 74); font-family: Figtree, &quot;Source Sans 3&quot;, system-ui, -apple-system, &quot;Segoe UI&quot;, Arial, sans-serif; font-size: 10.5px; overflow: visible;" data-margin-left="2" data-margin-right="16" data-margin-top="34" data-margin-bottom="74"><style>:where(.tblchart-p1) {
  --plot-background: white;
  display: block;
  height: auto;
  height: intrinsic;
  max-width: 100%;
}
:where(.tblchart-p1 text),
:where(.tblchart-p1 tspan) {
  white-space: pre;
}</style><g aria-label="rule" transform="translate(0.5,0)"><g class="tbl-gridline" stroke="#F0F0F0" transform="translate(0,9)"><line x1="80.25" x2="80.25" y1="25" y2="981"></line><line x1="158.5" x2="158.5" y1="25" y2="981"></line><line x1="236.75" x2="236.75" y1="25" y2="981"></line><line x1="315" x2="315" y1="25" y2="981"></line></g></g><g aria-label="text" transform="translate(0.5,12.5)"><g class="tbl-x-tick-label" fill="#666666" font-size="10.5" font-weight="500" transform="translate(0,922)"><text transform="translate(2,68)">0%</text><text transform="translate(80.25,68)">2%</text><text transform="translate(158.5,68)">4%</text><text transform="translate(236.75,68)">6%</text><text transform="translate(315,68)">8%</text></g></g><g aria-label="rule" transform="translate(0.5,0)"><g class="tbl-zero-baseline" stroke="#999999" transform="translate(0,9)"><line x1="2" x2="2" y1="25" y2="981"></line></g></g><g aria-label="bar"><g transform="translate(0,9)"><rect x="2" width="181.8882125" y="34" height="17" fill="#0072B2" data-series="Pre-Substitution"></rect><rect x="2" width="153.878625" y="51" height="17" fill="#E69F00" data-series="Post-Substitution"></rect></g><g transform="translate(0,52)"><rect x="2" width="125.6186375" y="34" height="17" fill="#0072B2" data-series="Pre-Substitution"></rect><rect x="2" width="98.242875" y="51" height="17" fill="#E69F00" data-series="Post-Substitution"></rect></g><g transform="translate(0,95)"><rect x="2" width="92.499325" y="34" height="17" fill="#0072B2" data-series="Pre-Substitution"></rect><rect x="2" width="80.5349" y="51" height="17" fill="#E69F00" data-series="Post-Substitution"></rect></g><g transform="translate(0,138)"><rect x="2" width="130.372325" y="34" height="17" fill="#0072B2" data-series="Pre-Substitution"></rect><rect x="2" width="106.7447375" y="51" height="17" fill="#E69F00" data-series="Post-Substitution"></rect></g><g transform="translate(0,224)"><rect x="2" width="292.240275" y="34" height="17" fill="#0072B2" data-series="Pre-Substitution"></rect><rect x="2" width="223.99845000000002" y="51" height="17" fill="#E69F00" data-series="Post-Substitution"></rect></g><g transform="translate(0,267)"><rect x="2" width="67.6823375" y="34" height="17" fill="#0072B2" data-series="Pre-Substitution"></rect><rect x="2" width="48.741925" y="51" height="17" fill="#E69F00" data-series="Post-Substitution"></rect></g><g transform="translate(0,310)"><rect x="2" width="40.635225" y="34" height="17" fill="#0072B2" data-series="Pre-Substitution"></rect><rect x="2" width="34.7156125" y="51" height="17" fill="#E69F00" data-series="Post-Substitution"></rect></g><g transform="translate(0,353)"><rect x="2" width="16.158625" y="34" height="17" fill="#0072B2" data-series="Pre-Substitution"></rect><rect x="2" width="14.2923625" y="51" height="17" fill="#E69F00" data-series="Post-Substitution"></rect></g><g transform="translate(0,439)"><rect x="2" width="42.45845" y="34" height="17" fill="#0072B2" data-series="Pre-Substitution"></rect><rect x="2" width="36.4958" y="51" height="17" fill="#E69F00" data-series="Post-Substitution"></rect></g><g transform="translate(0,482)"><rect x="2" width="32.03946249999999" y="34" height="17" fill="#0072B2" data-series="Pre-Substitution"></rect><rect x="2" width="30.0362625" y="51" height="17" fill="#E69F00" data-series="Post-Substitution"></rect></g><g transform="translate(0,525)"><rect x="2" width="22.1604" y="34" height="17" fill="#0072B2" data-series="Pre-Substitution"></rect><rect x="2" width="19.832462500000002" y="51" height="17" fill="#E69F00" data-series="Post-Substitution"></rect></g><g transform="translate(0,568)"><rect x="2" width="16.9919875" y="34" height="17" fill="#0072B2" data-series="Pre-Substitution"></rect><rect x="2" width="15.243100000000002" y="51" height="17" fill="#E69F00" data-series="Post-Substitution"></rect></g><g transform="translate(0,611)"><rect x="2" width="18.0405375" y="34" height="17" fill="#0072B2" data-series="Pre-Substitution"></rect><rect x="2" width="15.798675" y="51" height="17" fill="#E69F00" data-series="Post-Substitution"></rect></g><g transform="translate(0,654)"><rect x="2" width="16.9919875" y="34" height="17" fill="#0072B2" data-series="Pre-Substitution"></rect><rect x="2" width="15.129637499999998" y="51" height="17" fill="#E69F00" data-series="Post-Substitution"></rect></g><g transform="translate(0,697)"><rect x="2" width="17.6023375" y="34" height="17" fill="#0072B2" data-series="Pre-Substitution"></rect><rect x="2" width="15.446549999999998" y="51" height="17" fill="#E69F00" data-series="Post-Substitution"></rect></g><g transform="translate(0,740)"><rect x="2" width="19.70335" y="34" height="17" fill="#0072B2" data-series="Pre-Substitution"></rect><rect x="2" width="17.258037499999997" y="51" height="17" fill="#E69F00" data-series="Post-Substitution"></rect></g><g transform="translate(0,783)"><rect x="2" width="17.0389375" y="34" height="17" fill="#0072B2" data-series="Pre-Substitution"></rect><rect x="2" width="14.6288375" y="51" height="17" fill="#E69F00" data-series="Post-Substitution"></rect></g><g transform="translate(0,826)"><rect x="2" width="11.651425" y="34" height="17" fill="#0072B2" data-series="Pre-Substitution"></rect><rect x="2" width="10.395512499999999" y="51" height="17" fill="#E69F00" data-series="Post-Substitution"></rect></g><g transform="translate(0,869)"><rect x="2" width="5.000175" y="34" height="17" fill="#0072B2" data-series="Pre-Substitution"></rect><rect x="2" width="4.503287499999999" y="51" height="17" fill="#E69F00" data-series="Post-Substitution"></rect></g><g transform="translate(0,912)"><rect x="2" width="2.6487625" y="34" height="17" fill="#0072B2" data-series="Pre-Substitution"></rect><rect x="2" width="2.3514125000000003" y="51" height="17" fill="#E69F00" data-series="Post-Substitution"></rect></g></g></svg>