<!-- pane: Section 122 Expires (Section 122 Expires) -->
<svg class="tblchart-p0" fill="currentColor" font-family="system-ui, sans-serif" font-size="10" text-anchor="middle" width="569" height="820" viewBox="0 0 569 820" style="background: transparent; color: rgb(74, 74, 74); font-family: Figtree, &quot;Source Sans 3&quot;, system-ui, -apple-system, &quot;Segoe UI&quot;, Arial, sans-serif; font-size: 10.5px; overflow: visible;" data-margin-left="240" data-margin-right="16" data-margin-top="18" data-margin-bottom="74"><style>:where(.tblchart-p0) {
  --plot-background: white;
  display: block;
  height: auto;
  height: intrinsic;
  max-width: 100%;
}
:where(.tblchart-p0 text),
:where(.tblchart-p0 tspan) {
  white-space: pre;
}</style><g aria-label="rule" transform="translate(0.5,0)"><g class="tbl-gridline" stroke="#F0F0F0" transform="translate(0,11)"><line x1="318.25" x2="318.25" y1="7" y2="735"></line><line x1="396.5" x2="396.5" y1="7" y2="735"></line><line x1="474.75" x2="474.75" y1="7" y2="735"></line><line x1="553" x2="553" y1="7" y2="735"></line></g></g><g aria-label="text" transform="translate(0.5,12.5)"><g class="tbl-x-tick-label" fill="#666666" font-size="10.5" font-weight="500" transform="translate(0,703)"><text transform="translate(240,43)">0%</text><text transform="translate(318.25,43)">2%</text><text transform="translate(396.5,43)">4%</text><text transform="translate(474.75,43)">6%</text><text transform="translate(553,43)">8%</text></g></g><g aria-label="text" transform="translate(-239.5,0.5)"><g fill="#666666" text-anchor="start" font-size="10.5" font-weight="500" transform="translate(0,42)"><text y="0.32em" transform="translate(240,30.5)">Motor vehicles and parts</text></g><g fill="#666666" text-anchor="start" font-size="10.5" font-weight="500" transform="translate(0,73)"><text y="0.32em" transform="translate(240,30.5)">Furnishings and durable household equipment</text></g><g fill="#666666" text-anchor="start" font-size="10.5" font-weight="500" transform="translate(0,104)"><text y="0.32em" transform="translate(240,30.5)">Recreational goods and vehicles</text></g><g fill="#666666" text-anchor="start" font-size="10.5" font-weight="500" transform="translate(0,135)"><text y="0.32em" transform="translate(240,30.5)">Other durable goods</text></g><g fill="#666666" text-anchor="start" font-size="10.5" font-weight="500" transform="translate(0,197)"><text y="0.32em" transform="translate(240,30.5)">Clothing and footwear</text></g><g fill="#666666" text-anchor="start" font-size="10.5" font-weight="500" transform="translate(0,228)"><text y="0.32em" transform="translate(240,30.5)">Other nondurable goods</text></g><g fill="#666666" text-anchor="start" font-size="10.5" font-weight="500" transform="translate(0,259)"><text y="0.32em" transform="translate(240,30.5)">Food and beverages purchased for off-premises consumption</text></g><g fill="#666666" text-anchor="start" font-size="10.5" font-weight="500" transform="translate(0,290)"><text y="0.32em" transform="translate(240,30.5)">Gasoline and other energy goods</text></g><g fill="#666666" text-anchor="start" font-size="10.5" font-weight="500" transform="translate(0,352)"><text y="0.32em" transform="translate(240,30.5)">Net foreign travel</text></g><g fill="#666666" text-anchor="start" font-size="10.5" font-weight="500" transform="translate(0,383)"><text y="0.32em" transform="translate(240,30.5)">Transportation services</text></g><g fill="#666666" text-anchor="start" font-size="10.5" font-weight="500" transform="translate(0,414)"><text y="0.32em" transform="translate(240,30.5)">Communication</text></g><g fill="#666666" text-anchor="start" font-size="10.5" font-weight="500" transform="translate(0,445)"><text y="0.32em" transform="translate(240,30.5)">Household utilities</text></g><g fill="#666666" text-anchor="start" font-size="10.5" font-weight="500" transform="translate(0,476)"><text y="0.32em" transform="translate(240,30.5)">Other services</text></g><g fill="#666666" text-anchor="start" font-size="10.5" font-weight="500" transform="translate(0,507)"><text y="0.32em" transform="translate(240,30.5)">Final consumption expenditures of NPISH</text></g><g fill="#666666" text-anchor="start" font-size="10.5" font-weight="500" transform="translate(0,538)"><text y="0.32em" transform="translate(240,30.5)">Recreation services</text></g><g fill="#666666" text-anchor="start" font-size="10.5" font-weight="500" transform="translate(0,569)"><text y="0.32em" transform="translate(240,30.5)">Food services and accommodations</text></g><g fill="#666666" text-anchor="start" font-size="10.5" font-weight="500" transform="translate(0,600)"><text y="0.32em" transform="translate(240,30.5)">Health care</text></g><g fill="#666666" text-anchor="start" font-size="10.5" font-weight="500" transform="translate(0,631)"><text y="0.32em" transform="translate(240,30.5)">Education</text></g><g fill="#666666" text-anchor="start" font-size="10.5" font-weight="500" transform="translate(0,662)"><text y="0.32em" transform="translate(240,30.5)">Financial services and insurance</text></g><g fill="#666666" text-anchor="start" font-size="10.5" font-weight="500" transform="translate(0,693)"><text y="0.32em" transform="translate(240,30.5)">Housing</text></g></g><g aria-label="text" transform="translate(-239.5,-0.5)"><g fill="#1A1A2E" text-anchor="start" font-size="10.5" font-weight="700" transform="translate(0,11)"><text y="0.32em" transform="translate(240,30.5)">Durable goods</text></g><g fill="#1A1A2E" text-anchor="start" font-size="10.5" font-weight="700" transform="translate(0,166)"><text y="0.32em" transform="translate(240,30.5)">Nondurable goods</text></g><g fill="#1A1A2E" text-anchor="start" font-size="10.5" font-weight="700" transform="translate(0,321)"><text y="0.32em" transform="translate(240,30.5)">Services</text></g></g><g aria-label="rule" transform="translate(0.5,0)"><g class="tbl-zero-baseline" stroke="#999999" transform="translate(0,11)"><line x1="240" x2="240" y1="7" y2="735"></line></g></g><g aria-label="bar"><g transform="translate(0,42)"><rect x="240" width="173.894975" y="19" height="12" fill="#0072B2" data-series="Pre-Substitution"></rect><rect x="240" width="146.57007499999997" y="31" height="12" fill="#E69F00" data-series="Post-Substitution"></rect></g><g transform="translate(0,73)"><rect x="240" width="82.63982500000003" y="19" height="12" fill="#0072B2" data-series="Pre-Substitution"></rect><rect x="240" width="67.06025" y="31" height="12" fill="#E69F00" data-series="Post-Substitution"></rect></g><g transform="translate(0,104)"><rect x="240" width="68.7348" y="19" height="12" fill="#0072B2" data-series="Pre-Substitution"></rect><rect x="240" width="58.01063750000003" y="31" height="12" fill="#E69F00" data-series="Post-Substitution"></rect></g><g transform="translate(0,135)"><rect x="240" width="52.97525000000002" y="19" height="12" fill="#0072B2" data-series="Pre-Substitution"></rect><rect x="240" width="40.86997500000001" y="31" height="12" fill="#E69F00" data-series="Post-Substitution"></rect></g><g transform="translate(0,197)"><rect x="240" width="141.60120000000006" y="19" height="12" fill="#0072B2" data-series="Pre-Substitution"></rect><rect x="240" width="94.62772500000005" y="31" height="12" fill="#E69F00" data-series="Post-Substitution"></rect></g><g transform="translate(0,228)"><rect x="240" width="35.63504999999998" y="19" height="12" fill="#0072B2" data-series="Pre-Substitution"></rect><rect x="240" width="26.464150000000018" y="31" height="12" fill="#E69F00" data-series="Post-Substitution"></rect></g><g transform="translate(0,259)"><rect x="240" width="16.702462500000024" y="19" height="12" fill="#0072B2" data-series="Pre-Substitution"></rect><rect x="240" width="14.660137500000019" y="31" height="12" fill="#E69F00" data-series="Post-Substitution"></rect></g><g transform="translate(0,290)"><rect x="240" width="13.494212500000003" y="19" height="12" fill="#0072B2" data-series="Pre-Substitution"></rect><rect x="240" width="11.940949999999987" y="31" height="12" fill="#E69F00" data-series="Post-Substitution"></rect></g><g transform="translate(0,352)"><rect x="240" width="29.198987500000044" y="19" height="12" fill="#0072B2" data-series="Pre-Substitution"></rect><rect x="240" width="24.218375000000037" y="31" height="12" fill="#E69F00" data-series="Post-Substitution"></rect></g><g transform="translate(0,383)"><rect x="240" width="28.905550000000005" y="19" height="12" fill="#0072B2" data-series="Pre-Substitution"></rect><rect x="240" width="27.105799999999988" y="31" height="12" fill="#E69F00" data-series="Post-Substitution"></rect></g><g transform="translate(0,414)"><rect x="240" width="17.348025000000007" y="19" height="12" fill="#0072B2" data-series="Pre-Substitution"></rect><rect x="240" width="14.961400000000026" y="31" height="12" fill="#E69F00" data-series="Post-Substitution"></rect></g><g transform="translate(0,445)"><rect x="240" width="13.885462500000017" y="19" height="12" fill="#0072B2" data-series="Pre-Substitution"></rect><rect x="240" width="12.28524999999999" y="31" height="12" fill="#E69F00" data-series="Post-Substitution"></rect></g><g transform="translate(0,476)"><rect x="240" width="12.433925000000016" y="19" height="12" fill="#0072B2" data-series="Pre-Substitution"></rect><rect x="240" width="10.9510875" y="31" height="12" fill="#E69F00" data-series="Post-Substitution"></rect></g><g transform="translate(0,507)"><rect x="240" width="11.976162500000015" y="19" height="12" fill="#0072B2" data-series="Pre-Substitution"></rect><rect x="240" width="10.622437500000018" y="31" height="12" fill="#E69F00" data-series="Post-Substitution"></rect></g><g transform="translate(0,538)"><rect x="240" width="11.870524999999986" y="19" height="12" fill="#0072B2" data-series="Pre-Substitution"></rect><rect x="240" width="10.266399999999976" y="31" height="12" fill="#E69F00" data-series="Post-Substitution"></rect></g><g transform="translate(0,569)"><rect x="240" width="10.520712500000002" y="19" height="12" fill="#0072B2" data-series="Pre-Substitution"></rect><rect x="240" width="9.249150000000014" y="31" height="12" fill="#E69F00" data-series="Post-Substitution"></rect></g><g transform="translate(0,600)"><rect x="240" width="9.616925000000009" y="19" height="12" fill="#0072B2" data-series="Pre-Substitution"></rect><rect x="240" width="8.181037500000002" y="31" height="12" fill="#E69F00" data-series="Post-Substitution"></rect></g><g transform="translate(0,631)"><rect x="240" width="8.216250000000002" y="19" height="12" fill="#0072B2" data-series="Pre-Substitution"></rect><rect x="240" width="7.285074999999978" y="31" height="12" fill="#E69F00" data-series="Post-Substitution"></rect></g><g transform="translate(0,662)"><rect x="240" width="3.8107749999999783" y="19" height="12" fill="#0072B2" data-series="Pre-Substitution"></rect><rect x="240" width="3.3686624999999992" y="31" height="12" fill="#E69F00" data-series="Post-Substitution"></rect></g><g transform="translate(0,693)"><rect x="240" width="1.960162500000024" y="19" height="12" fill="#0072B2" data-series="Pre-Substitution"></rect><rect x="240" width="1.7332375000000013" y="31" height="12" fill="#E69F00" data-series="Post-Substitution"></rect></g></g></svg>

<!-- pane: Section 122 Extended (Section 122 Extended) -->
<svg class="tblchart-p1" fill="currentColor" font-family="system-ui, sans-serif" font-size="10" text-anchor="middle" width="331" height="820" viewBox="0 0 331 820" style="background: transparent; color: rgb(74, 74, 74); font-family: Figtree, &quot;Source Sans 3&quot;, system-ui, -apple-system, &quot;Segoe UI&quot;, Arial, sans-serif; font-size: 10.5px; overflow: visible;" data-margin-left="2" data-margin-right="16" data-margin-top="18" data-margin-bottom="74"><style>:where(.tblchart-p1) {
  --plot-background: white;
  display: block;
  height: auto;
  height: intrinsic;
  max-width: 100%;
}
:where(.tblchart-p1 text),
:where(.tblchart-p1 tspan) {
  white-space: pre;
}</style><g aria-label="rule" transform="translate(0.5,0)"><g class="tbl-gridline" stroke="#F0F0F0" transform="translate(0,42)"><line x1="80.25" x2="80.25" y1="-24" y2="704"></line><line x1="158.5" x2="158.5" y1="-24" y2="704"></line><line x1="236.75" x2="236.75" y1="-24" y2="704"></line><line x1="315" x2="315" y1="-24" y2="704"></line></g></g><g aria-label="text" transform="translate(0.5,12.5)"><g class="tbl-x-tick-label" fill="#666666" font-size="10.5" font-weight="500" transform="translate(0,703)"><text transform="translate(2,43)">0%</text><text transform="translate(80.25,43)">2%</text><text transform="translate(158.5,43)">4%</text><text transform="translate(236.75,43)">6%</text><text transform="translate(315,43)">8%</text></g></g><g aria-label="rule" transform="translate(0.5,0)"><g class="tbl-zero-baseline" stroke="#999999" transform="translate(0,42)"><line x1="2" x2="2" y1="-24" y2="704"></line></g></g><g aria-label="bar"><g transform="translate(0,42)"><rect x="2" width="181.8882125" y="19" height="12" fill="#0072B2" data-series="Pre-Substitution"></rect><rect x="2" width="153.878625" y="31" height="12" fill="#E69F00" data-series="Post-Substitution"></rect></g><g transform="translate(0,73)"><rect x="2" width="125.6186375" y="19" height="12" fill="#0072B2" data-series="Pre-Substitution"></rect><rect x="2" width="98.242875" y="31" height="12" fill="#E69F00" data-series="Post-Substitution"></rect></g><g transform="translate(0,104)"><rect x="2" width="92.499325" y="19" height="12" fill="#0072B2" data-series="Pre-Substitution"></rect><rect x="2" width="80.5349" y="31" height="12" fill="#E69F00" data-series="Post-Substitution"></rect></g><g transform="translate(0,135)"><rect x="2" width="130.372325" y="19" height="12" fill="#0072B2" data-series="Pre-Substitution"></rect><rect x="2" width="106.7447375" y="31" height="12" fill="#E69F00" data-series="Post-Substitution"></rect></g><g transform="translate(0,197)"><rect x="2" width="292.240275" y="19" height="12" fill="#0072B2" data-series="Pre-Substitution"></rect><rect x="2" width="223.99845000000002" y="31" height="12" fill="#E69F00" data-series="Post-Substitution"></rect></g><g transform="translate(0,228)"><rect x="2" width="67.6823375" y="19" height="12" fill="#0072B2" data-series="Pre-Substitution"></rect><rect x="2" width="48.741925" y="31" height="12" fill="#E69F00" data-series="Post-Substitution"></rect></g><g transform="translate(0,259)"><rect x="2" width="40.635225" y="19" height="12" fill="#0072B2" data-series="Pre-Substitution"></rect><rect x="2" width="34.7156125" y="31" height="12" fill="#E69F00" data-series="Post-Substitution"></rect></g><g transform="translate(0,290)"><rect x="2" width="16.158625" y="19" height="12" fill="#0072B2" data-series="Pre-Substitution"></rect><rect x="2" width="14.2923625" y="31" height="12" fill="#E69F00" data-series="Post-Substitution"></rect></g><g transform="translate(0,352)"><rect x="2" width="42.45845" y="19" height="12" fill="#0072B2" data-series="Pre-Substitution"></rect><rect x="2" width="36.4958" y="31" height="12" fill="#E69F00" data-series="Post-Substitution"></rect></g><g transform="translate(0,383)"><rect x="2" width="32.03946249999999" y="19" height="12" fill="#0072B2" data-series="Pre-Substitution"></rect><rect x="2" width="30.0362625" y="31" height="12" fill="#E69F00" data-series="Post-Substitution"></rect></g><g transform="translate(0,414)"><rect x="2" width="22.1604" y="19" height="12" fill="#0072B2" data-series="Pre-Substitution"></rect><rect x="2" width="19.832462500000002" y="31" height="12" fill="#E69F00" data-series="Post-Substitution"></rect></g><g transform="translate(0,445)"><rect x="2" width="16.9919875" y="19" height="12" fill="#0072B2" data-series="Pre-Substitution"></rect><rect x="2" width="15.243100000000002" y="31" height="12" fill="#E69F00" data-series="Post-Substitution"></rect></g><g transform="translate(0,476)"><rect x="2" width="18.0405375" y="19" height="12" fill="#0072B2" data-series="Pre-Substitution"></rect><rect x="2" width="15.798675" y="31" height="12" fill="#E69F00" data-series="Post-Substitution"></rect></g><g transform="translate(0,507)"><rect x="2" width="16.9919875" y="19" height="12" fill="#0072B2" data-series="Pre-Substitution"></rect><rect x="2" width="15.129637499999998" y="31" height="12" fill="#E69F00" data-series="Post-Substitution"></rect></g><g transform="translate(0,538)"><rect x="2" width="17.6023375" y="19" height="12" fill="#0072B2" data-series="Pre-Substitution"></rect><rect x="2" width="15.446549999999998" y="31" height="12" fill="#E69F00" data-series="Post-Substitution"></rect></g><g transform="translate(0,569)"><rect x="2" width="19.70335" y="19" height="12" fill="#0072B2" data-series="Pre-Substitution"></rect><rect x="2" width="17.258037499999997" y="31" height="12" fill="#E69F00" data-series="Post-Substitution"></rect></g><g transform="translate(0,600)"><rect x="2" width="17.0389375" y="19" height="12" fill="#0072B2" data-series="Pre-Substitution"></rect><rect x="2" width="14.6288375" y="31" height="12" fill="#E69F00" data-series="Post-Substitution"></rect></g><g transform="translate(0,631)"><rect x="2" width="11.651425" y="19" height="12" fill="#0072B2" data-series="Pre-Substitution"></rect><rect x="2" width="10.395512499999999" y="31" height="12" fill="#E69F00" data-series="Post-Substitution"></rect></g><g transform="translate(0,662)"><rect x="2" width="5.000175" y="19" height="12" fill="#0072B2" data-series="Pre-Substitution"></rect><rect x="2" width="4.503287499999999" y="31" height="12" fill="#E69F00" data-series="Post-Substitution"></rect></g><g transform="translate(0,693)"><rect x="2" width="2.6487625" y="19" height="12" fill="#0072B2" data-series="Pre-Substitution"></rect><rect x="2" width="2.3514125000000003" y="31" height="12" fill="#E69F00" data-series="Post-Substitution"></rect></g></g></svg>