<svg class="tblchart-fig" fill="currentColor" font-family="system-ui, sans-serif" font-size="10" text-anchor="middle" width="720" height="460" viewBox="0 0 720 460" style="background: transparent; color: rgb(74, 74, 74); font-family: Figtree, &quot;Source Sans 3&quot;, system-ui, -apple-system, &quot;Segoe UI&quot;, Arial, sans-serif; font-size: 10.5px; overflow: visible;" data-margin-left="44" data-margin-right="16" data-margin-top="18" data-margin-bottom="38"><style>:where(.tblchart-fig) {
  --plot-background: white;
  display: block;
  height: auto;
  height: intrinsic;
  max-width: 100%;
}
:where(.tblchart-fig text),
:where(.tblchart-fig tspan) {
  white-space: pre;
}</style><g aria-label="rule" transform="translate(0,0.5)"><g stroke="#F0F0F0" transform="translate(1,1)"><line x1="0" x2="376" y1="194" y2="194"></line><line x1="0" x2="376" y1="168.8571428571429" y2="168.8571428571429"></line><line x1="0" x2="376" y1="143.71428571428572" y2="143.71428571428572"></line><line x1="0" x2="376" y1="118.57142857142856" y2="118.57142857142856"></line><line x1="0" x2="376" y1="93.42857142857144" y2="93.42857142857144"></line><line x1="0" x2="376" y1="68.28571428571428" y2="68.28571428571428"></line><line x1="0" x2="376" y1="43.14285714285715" y2="43.14285714285715"></line><line x1="0" x2="376" y1="18" y2="18"></line></g><g stroke="#F0F0F0" transform="translate(1,227)"><line x1="0" x2="376" y1="194" y2="194"></line><line x1="0" x2="376" y1="168.8571428571429" y2="168.8571428571429"></line><line x1="0" x2="376" y1="143.71428571428572" y2="143.71428571428572"></line><line x1="0" x2="376" y1="118.57142857142856" y2="118.57142857142856"></line><line x1="0" x2="376" y1="93.42857142857144" y2="93.42857142857144"></line><line x1="0" x2="376" y1="68.28571428571428" y2="68.28571428571428"></line><line x1="0" x2="376" y1="43.14285714285715" y2="43.14285714285715"></line><line x1="0" x2="376" y1="18" y2="18"></line></g><g stroke="#F0F0F0" transform="translate(344,1)"><line x1="0" x2="376" y1="194" y2="194"></line><line x1="0" x2="376" y1="168.8571428571429" y2="168.8571428571429"></line><line x1="0" x2="376" y1="143.71428571428572" y2="143.71428571428572"></line><line x1="0" x2="376" y1="118.57142857142856" y2="118.57142857142856"></line><line x1="0" x2="376" y1="93.42857142857144" y2="93.42857142857144"></line><line x1="0" x2="376" y1="68.28571428571428" y2="68.28571428571428"></line><line x1="0" x2="376" y1="43.14285714285715" y2="43.14285714285715"></line><line x1="0" x2="376" y1="18" y2="18"></line></g><g stroke="#F0F0F0" transform="translate(344,227)"><line x1="0" x2="376" y1="194" y2="194"></line><line x1="0" x2="376" y1="168.8571428571429" y2="168.8571428571429"></line><line x1="0" x2="376" y1="143.71428571428572" y2="143.71428571428572"></line><line x1="0" x2="376" y1="118.57142857142856" y2="118.57142857142856"></line><line x1="0" x2="376" y1="93.42857142857144" y2="93.42857142857144"></line><line x1="0" x2="376" y1="68.28571428571428" y2="68.28571428571428"></line><line x1="0" x2="376" y1="43.14285714285715" y2="43.14285714285715"></line><line x1="0" x2="376" y1="18" y2="18"></line></g></g><g aria-label="text" transform="translate(-43.5,-5.5)"><g class="tbl-y-tick-label" fill="#666666" text-anchor="start" font-size="10.5" font-weight="500" transform="translate(1,1)"><text y="0.32em" transform="translate(44,194)">6</text><text y="0.32em" transform="translate(44,168.8571428571429)">8</text><text y="0.32em" transform="translate(44,143.71428571428572)">10</text><text y="0.32em" transform="translate(44,118.57142857142856)">12</text><text y="0.32em" transform="translate(44,93.42857142857144)">14</text><text y="0.32em" transform="translate(44,68.28571428571428)">16</text><text y="0.32em" transform="translate(44,43.14285714285715)">18</text><text y="0.32em" transform="translate(44,18)">20</text></g><g class="tbl-y-tick-label" fill="#666666" text-anchor="start" font-size="10.5" font-weight="500" transform="translate(1,227)"><text y="0.32em" transform="translate(44,194)">6</text><text y="0.32em" transform="translate(44,168.8571428571429)">8</text><text y="0.32em" transform="translate(44,143.71428571428572)">10</text><text y="0.32em" transform="translate(44,118.57142857142856)">12</text><text y="0.32em" transform="translate(44,93.42857142857144)">14</text><text y="0.32em" transform="translate(44,68.28571428571428)">16</text><text y="0.32em" transform="translate(44,43.14285714285715)">18</text><text y="0.32em" transform="translate(44,18)">20</text></g></g><g aria-label="text" transform="translate(0.5,12.5)"><g class="tbl-x-axis-label" fill="#666666" font-size="10.5" font-weight="500" transform="translate(1,227)"><text transform="translate(44,194)">Jan</text><text transform="translate(96.46243917274938,194)">Jul</text><text transform="translate(149.52554744525548,194)">Jan</text><text transform="translate(201.69966545012167,194)">Jul</text><text transform="translate(254.7627737226277,194)">Jan</text><text transform="translate(306.9368917274939,194)">Jul</text><text transform="translate(360,194)">Jan</text></g><g class="tbl-x-axis-label" fill="#666666" font-size="10.5" font-weight="500" transform="translate(344,227)"><text transform="translate(44,194)">Jan</text><text transform="translate(96.46243917274938,194)">Jul</text><text transform="translate(149.52554744525548,194)">Jan</text><text transform="translate(201.69966545012167,194)">Jul</text><text transform="translate(254.7627737226277,194)">Jan</text><text transform="translate(306.9368917274939,194)">Jul</text><text transform="translate(360,194)">Jan</text></g></g><g aria-label="text" transform="translate(0.5,24.5)"><g class="tbl-x-axis-label" fill="#666666" font-size="10.5" font-weight="500" transform="translate(1,227)"><text transform="translate(44,194)">2020</text><text transform="translate(149.52554744525548,194)">2021</text><text transform="translate(254.7627737226277,194)">2022</text><text transform="translate(360,194)">2023</text></g><g class="tbl-x-axis-label" fill="#666666" font-size="10.5" font-weight="500" transform="translate(344,227)"><text transform="translate(44,194)">2020</text><text transform="translate(149.52554744525548,194)">2021</text><text transform="translate(254.7627737226277,194)">2022</text><text transform="translate(360,194)">2023</text></g></g><g aria-label="line" transform="translate(0.5,0.5)"><g fill="none" stroke-width="1.75" stroke-linejoin="round" stroke-linecap="round" transform="translate(1,1)"><path stroke="#0072B2" d="M44,143.714L149.526,93.429L254.763,118.571L360,43.143" data-series="Series"></path></g><g fill="none" stroke-width="1.75" stroke-linejoin="round" stroke-linecap="round" transform="translate(1,227)"><path stroke="#0072B2" d="M44,80.857L149.526,118.571L254.763,68.286L360,18"></path></g><g fill="none" stroke-width="1.75" stroke-linejoin="round" stroke-linecap="round" transform="translate(344,1)"><path stroke="#0072B2" d="M44,168.857L149.526,156.286L254.763,106L360,131.143"></path></g><g fill="none" stroke-width="1.75" stroke-linejoin="round" stroke-linecap="round" transform="translate(344,227)"><path stroke="#0072B2" d="M44,194L149.526,131.143L254.763,156.286L360,93.429"></path></g></g><g aria-label="text" transform="translate(0.5,-7.5)"><g class="tbl-pane-title" fill="#4A4A4A" text-anchor="start" font-size="11" font-weight="700" transform="translate(1,1)"><text y="0.71em" transform="translate(44,18)">Northeast</text></g><g class="tbl-pane-title" fill="#4A4A4A" text-anchor="start" font-size="11" font-weight="700" transform="translate(1,227)"><text y="0.71em" transform="translate(44,18)">South</text></g><g class="tbl-pane-title" fill="#4A4A4A" text-anchor="start" font-size="11" font-weight="700" transform="translate(344,1)"><text y="0.71em" transform="translate(44,18)">Midwest</text></g><g class="tbl-pane-title" fill="#4A4A4A" text-anchor="start" font-size="11" font-weight="700" transform="translate(344,227)"><text y="0.71em" transform="translate(44,18)">West</text></g></g></svg>