<!-- pane: Northeast (Northeast) -->
<svg class="tblchart-p0" fill="currentColor" font-family="system-ui, sans-serif" font-size="10" text-anchor="middle" width="360" height="240" viewBox="0 0 360 240" style="background: transparent; color: rgb(74, 74, 74); font-family: Figtree, &quot;Source Sans 3&quot;, system-ui, -apple-system, &quot;Segoe UI&quot;, Arial, sans-serif; font-size: 10.5px; overflow: visible;" data-margin-left="44" data-margin-right="16" data-margin-top="18" data-margin-bottom="22"><style>:where(.tblchart-p0) {
  --plot-background: white;
  display: block;
  height: auto;
  height: intrinsic;
  max-width: 100%;
}
:where(.tblchart-p0 text),
:where(.tblchart-p0 tspan) {
  white-space: pre;
}</style><g aria-label="rule" stroke="#F0F0F0" transform="translate(0,0.5)"><line x1="0" x2="360" y1="184.66666666666669" y2="184.66666666666669"></line><line x1="0" x2="360" y1="151.33333333333334" y2="151.33333333333334"></line><line x1="0" x2="360" y1="118" y2="118"></line><line x1="0" x2="360" y1="84.66666666666667" y2="84.66666666666667"></line><line x1="0" x2="360" y1="51.33333333333333" y2="51.33333333333333"></line><line x1="0" x2="360" y1="18" y2="18"></line></g><g aria-label="text" class="tbl-y-tick-label" fill="#666666" text-anchor="start" font-size="10.5" font-weight="500" transform="translate(-43.5,-5.5)"><text y="0.32em" transform="translate(44,218)">0%</text><text y="0.32em" transform="translate(44,184.66666666666669)">1%</text><text y="0.32em" transform="translate(44,151.33333333333334)">2%</text><text y="0.32em" transform="translate(44,118)">3%</text><text y="0.32em" transform="translate(44,84.66666666666667)">4%</text><text y="0.32em" transform="translate(44,51.33333333333333)">5%</text><text y="0.32em" transform="translate(44,18)">6%</text></g><g aria-label="text" fill="#666666" font-size="10.5" font-weight="500" transform="translate(37.5,12.5)"><text transform="translate(64,218)">2019</text><text transform="translate(157,218)">2022</text><text transform="translate(250,218)">2025</text></g><g aria-label="rule" stroke="#999999" transform="translate(0,0.5)"><line x1="0" x2="360" y1="218" y2="218"></line></g><g aria-label="bar" fill="#0072B2"><rect x="64" width="74" y="111.33333333333333" height="106.66666666666667" data-series="Effect"></rect><rect x="157" width="74" y="81.33333333333336" height="136.66666666666663" data-series="Effect"></rect><rect x="250" width="74" y="58.000000000000014" height="160" data-series="Effect"></rect></g></svg>

<!-- pane: Midwest (Midwest) -->
<svg class="tblchart-p1" fill="currentColor" font-family="system-ui, sans-serif" font-size="10" text-anchor="middle" width="360" height="240" viewBox="0 0 360 240" style="background: transparent; color: rgb(74, 74, 74); font-family: Figtree, &quot;Source Sans 3&quot;, system-ui, -apple-system, &quot;Segoe UI&quot;, Arial, sans-serif; font-size: 10.5px; overflow: visible;" data-margin-left="44" data-margin-right="16" data-margin-top="18" data-margin-bottom="22"><style>:where(.tblchart-p1) {
  --plot-background: white;
  display: block;
  height: auto;
  height: intrinsic;
  max-width: 100%;
}
:where(.tblchart-p1 text),
:where(.tblchart-p1 tspan) {
  white-space: pre;
}</style><g aria-label="rule" stroke="#F0F0F0" transform="translate(0,0.5)"><line x1="0" x2="360" y1="189.42857142857144" y2="189.42857142857144"></line><line x1="0" x2="360" y1="160.85714285714286" y2="160.85714285714286"></line><line x1="0" x2="360" y1="132.28571428571428" y2="132.28571428571428"></line><line x1="0" x2="360" y1="103.71428571428572" y2="103.71428571428572"></line><line x1="0" x2="360" y1="75.14285714285714" y2="75.14285714285714"></line><line x1="0" x2="360" y1="46.571428571428584" y2="46.571428571428584"></line><line x1="0" x2="360" y1="18" y2="18"></line></g><g aria-label="text" class="tbl-y-tick-label" fill="#666666" text-anchor="start" font-size="10.5" font-weight="500" transform="translate(-43.5,-5.5)"><text y="0.32em" transform="translate(44,218)">0.0%</text><text y="0.32em" transform="translate(44,189.42857142857144)">0.5%</text><text y="0.32em" transform="translate(44,160.85714285714286)">1.0%</text><text y="0.32em" transform="translate(44,132.28571428571428)">1.5%</text><text y="0.32em" transform="translate(44,103.71428571428572)">2.0%</text><text y="0.32em" transform="translate(44,75.14285714285714)">2.5%</text><text y="0.32em" transform="translate(44,46.571428571428584)">3.0%</text><text y="0.32em" transform="translate(44,18)">3.5%</text></g><g aria-label="text" fill="#666666" font-size="10.5" font-weight="500" transform="translate(37.5,12.5)"><text transform="translate(64,218)">2019</text><text transform="translate(157,218)">2022</text><text transform="translate(250,218)">2025</text></g><g aria-label="rule" stroke="#999999" transform="translate(0,0.5)"><line x1="0" x2="360" y1="218" y2="218"></line></g><g aria-label="bar" fill="#0072B2"><rect x="64" width="74" y="98" height="120" data-series="Effect"></rect><rect x="157" width="74" y="69.42857142857142" height="148.57142857142858" data-series="Effect"></rect><rect x="250" width="74" y="29.42857142857143" height="188.57142857142856" data-series="Effect"></rect></g></svg>

<!-- pane: South (South) -->
<svg class="tblchart-p2" fill="currentColor" font-family="system-ui, sans-serif" font-size="10" text-anchor="middle" width="360" height="240" viewBox="0 0 360 240" style="background: transparent; color: rgb(74, 74, 74); font-family: Figtree, &quot;Source Sans 3&quot;, system-ui, -apple-system, &quot;Segoe UI&quot;, Arial, sans-serif; font-size: 10.5px; overflow: visible;" data-margin-left="44" data-margin-right="16" data-margin-top="18" data-margin-bottom="22"><style>:where(.tblchart-p2) {
  --plot-background: white;
  display: block;
  height: auto;
  height: intrinsic;
  max-width: 100%;
}
:where(.tblchart-p2 text),
:where(.tblchart-p2 tspan) {
  white-space: pre;
}</style><g aria-label="rule" stroke="#F0F0F0" transform="translate(0,0.5)"><line x1="0" x2="360" y1="184.66666666666669" y2="184.66666666666669"></line><line x1="0" x2="360" y1="151.33333333333334" y2="151.33333333333334"></line><line x1="0" x2="360" y1="118" y2="118"></line><line x1="0" x2="360" y1="84.66666666666667" y2="84.66666666666667"></line><line x1="0" x2="360" y1="51.33333333333333" y2="51.33333333333333"></line><line x1="0" x2="360" y1="18" y2="18"></line></g><g aria-label="text" class="tbl-y-tick-label" fill="#666666" text-anchor="start" font-size="10.5" font-weight="500" transform="translate(-43.5,-5.5)"><text y="0.32em" transform="translate(44,218)">0%</text><text y="0.32em" transform="translate(44,184.66666666666669)">1%</text><text y="0.32em" transform="translate(44,151.33333333333334)">2%</text><text y="0.32em" transform="translate(44,118)">3%</text><text y="0.32em" transform="translate(44,84.66666666666667)">4%</text><text y="0.32em" transform="translate(44,51.33333333333333)">5%</text><text y="0.32em" transform="translate(44,18)">6%</text></g><g aria-label="text" fill="#666666" font-size="10.5" font-weight="500" transform="translate(37.5,12.5)"><text transform="translate(64,218)">2019</text><text transform="translate(157,218)">2022</text><text transform="translate(250,218)">2025</text></g><g aria-label="rule" stroke="#999999" transform="translate(0,0.5)"><line x1="0" x2="360" y1="218" y2="218"></line></g><g aria-label="bar" fill="#0072B2"><rect x="64" width="74" y="68" height="150" data-series="Effect"></rect><rect x="157" width="74" y="51.33333333333333" height="166.66666666666669" data-series="Effect"></rect><rect x="250" width="74" y="31.33333333333335" height="186.66666666666666" data-series="Effect"></rect></g></svg>

<!-- pane: West (West) -->
<svg class="tblchart-p3" fill="currentColor" font-family="system-ui, sans-serif" font-size="10" text-anchor="middle" width="360" height="240" viewBox="0 0 360 240" style="background: transparent; color: rgb(74, 74, 74); font-family: Figtree, &quot;Source Sans 3&quot;, system-ui, -apple-system, &quot;Segoe UI&quot;, Arial, sans-serif; font-size: 10.5px; overflow: visible;" data-margin-left="44" data-margin-right="16" data-margin-top="18" data-margin-bottom="22"><style>:where(.tblchart-p3) {
  --plot-background: white;
  display: block;
  height: auto;
  height: intrinsic;
  max-width: 100%;
}
:where(.tblchart-p3 text),
:where(.tblchart-p3 tspan) {
  white-space: pre;
}</style><g aria-label="rule" stroke="#F0F0F0" transform="translate(0,0.5)"><line x1="0" x2="360" y1="189.42857142857144" y2="189.42857142857144"></line><line x1="0" x2="360" y1="160.85714285714286" y2="160.85714285714286"></line><line x1="0" x2="360" y1="132.28571428571428" y2="132.28571428571428"></line><line x1="0" x2="360" y1="103.71428571428572" y2="103.71428571428572"></line><line x1="0" x2="360" y1="75.14285714285714" y2="75.14285714285714"></line><line x1="0" x2="360" y1="46.571428571428584" y2="46.571428571428584"></line><line x1="0" x2="360" y1="18" y2="18"></line></g><g aria-label="text" class="tbl-y-tick-label" fill="#666666" text-anchor="start" font-size="10.5" font-weight="500" transform="translate(-43.5,-5.5)"><text y="0.32em" transform="translate(44,218)">0.0%</text><text y="0.32em" transform="translate(44,189.42857142857144)">0.5%</text><text y="0.32em" transform="translate(44,160.85714285714286)">1.0%</text><text y="0.32em" transform="translate(44,132.28571428571428)">1.5%</text><text y="0.32em" transform="translate(44,103.71428571428572)">2.0%</text><text y="0.32em" transform="translate(44,75.14285714285714)">2.5%</text><text y="0.32em" transform="translate(44,46.571428571428584)">3.0%</text><text y="0.32em" transform="translate(44,18)">3.5%</text></g><g aria-label="text" fill="#666666" font-size="10.5" font-weight="500" transform="translate(37.5,12.5)"><text transform="translate(64,218)">2019</text><text transform="translate(157,218)">2022</text><text transform="translate(250,218)">2025</text></g><g aria-label="rule" stroke="#999999" transform="translate(0,0.5)"><line x1="0" x2="360" y1="218" y2="218"></line></g><g aria-label="bar" fill="#0072B2"><rect x="64" width="74" y="115.14285714285712" height="102.85714285714288" data-series="Effect"></rect><rect x="157" width="74" y="92.28571428571426" height="125.71428571428574" data-series="Effect"></rect><rect x="250" width="74" y="52.28571428571429" height="165.71428571428572" data-series="Effect"></rect></g></svg>