<!-- pane: Plan A (Plan A) -->
<svg class="tblchart-p0" fill="currentColor" font-family="system-ui, sans-serif" font-size="10" text-anchor="middle" width="360" height="240" viewBox="0 0 360 240" style="background: transparent; color: rgb(74, 74, 74); font-family: Figtree, &quot;Source Sans 3&quot;, system-ui, -apple-system, &quot;Segoe UI&quot;, Arial, sans-serif; font-size: 10.5px; overflow: visible;" data-margin-left="44" data-margin-right="16" data-margin-top="18" data-margin-bottom="22"><style>:where(.tblchart-p0) {
  --plot-background: white;
  display: block;
  height: auto;
  height: intrinsic;
  max-width: 100%;
}
:where(.tblchart-p0 text),
:where(.tblchart-p0 tspan) {
  white-space: pre;
}</style><g aria-label="rule" stroke="#F0F0F0" transform="translate(0,0.5)"><line x1="0" x2="360" y1="218" y2="218"></line><line x1="0" x2="360" y1="184.66666666666669" y2="184.66666666666669"></line><line x1="0" x2="360" y1="118" y2="118"></line><line x1="0" x2="360" y1="84.66666666666667" y2="84.66666666666667"></line><line x1="0" x2="360" y1="51.33333333333333" y2="51.33333333333333"></line><line x1="0" x2="360" y1="18" y2="18"></line></g><g aria-label="text" class="tbl-y-tick-label" fill="#666666" text-anchor="start" font-size="10.5" font-weight="500" transform="translate(-43.5,-5.5)"><text y="0.32em" transform="translate(44,218)">-4%</text><text y="0.32em" transform="translate(44,184.66666666666669)">-2%</text><text y="0.32em" transform="translate(44,151.33333333333334)">0%</text><text y="0.32em" transform="translate(44,118)">2%</text><text y="0.32em" transform="translate(44,84.66666666666667)">4%</text><text y="0.32em" transform="translate(44,51.33333333333333)">6%</text><text y="0.32em" transform="translate(44,18)">8%</text></g><g aria-label="text" class="tbl-cat-label" fill="#666666" font-size="10.5" font-weight="500" transform="translate(55,12.5)"><text transform="translate(72,218)" data-category="Year 1">Year 1</text><text transform="translate(208,218)" data-category="Year 2">Year 2</text></g><g aria-label="rule" stroke="#999999" transform="translate(0,0.5)"><line x1="0" x2="360" y1="151.33333333333334" y2="151.33333333333334"></line></g><g aria-label="bar"><rect x="72" width="109" y="84.66666666666667" height="66.66666666666667" fill="#0072B2" data-series="Lower rates"></rect><rect x="72" width="109" y="51.33333333333333" height="33.33333333333334" fill="#E69F00" data-series="Wider brackets"></rect><rect x="72" width="109" y="151.33333333333334" height="24.99999999999997" fill="#8856BF" data-series="Limit deductions"></rect><rect x="72" width="109" y="176.33333333333331" height="41.666666666666686" fill="#2A8B3A" data-series="Repeal credit"></rect><rect x="208" width="109" y="101.33333333333333" height="50.000000000000014" fill="#0072B2" data-series="Lower rates"></rect><rect x="208" width="109" y="59.66666666666667" height="41.66666666666666" fill="#E69F00" data-series="Wider brackets"></rect><rect x="208" width="109" y="151.33333333333334" height="16.666666666666657" fill="#8856BF" data-series="Limit deductions"></rect><rect x="208" width="109" y="168" height="50" fill="#2A8B3A" data-series="Repeal credit"></rect></g><g aria-label="dot" class="tbl-net-marker" fill="#FFFFFF" stroke="#000000" stroke-width="2" transform="translate(55,0.5)"><circle cx="72" cy="118" r="5.6" data-series="__total__"></circle><circle cx="208" cy="126.33333333333334" r="5.6" data-series="__total__"></circle></g></svg>

<!-- pane: Plan B (Plan B) -->
<svg class="tblchart-p1" fill="currentColor" font-family="system-ui, sans-serif" font-size="10" text-anchor="middle" width="360" height="240" viewBox="0 0 360 240" style="background: transparent; color: rgb(74, 74, 74); font-family: Figtree, &quot;Source Sans 3&quot;, system-ui, -apple-system, &quot;Segoe UI&quot;, Arial, sans-serif; font-size: 10.5px; overflow: visible;" data-margin-left="44" data-margin-right="16" data-margin-top="18" data-margin-bottom="22"><style>:where(.tblchart-p1) {
  --plot-background: white;
  display: block;
  height: auto;
  height: intrinsic;
  max-width: 100%;
}
:where(.tblchart-p1 text),
:where(.tblchart-p1 tspan) {
  white-space: pre;
}</style><g aria-label="rule" stroke="#F0F0F0" transform="translate(0,0.5)"><line x1="0" x2="360" y1="218" y2="218"></line><line x1="0" x2="360" y1="184.66666666666669" y2="184.66666666666669"></line><line x1="0" x2="360" y1="118" y2="118"></line><line x1="0" x2="360" y1="84.66666666666667" y2="84.66666666666667"></line><line x1="0" x2="360" y1="51.33333333333333" y2="51.33333333333333"></line><line x1="0" x2="360" y1="18" y2="18"></line></g><g aria-label="text" class="tbl-y-tick-label" fill="#666666" text-anchor="start" font-size="10.5" font-weight="500" transform="translate(-43.5,-5.5)"><text y="0.32em" transform="translate(44,218)">-4%</text><text y="0.32em" transform="translate(44,184.66666666666669)">-2%</text><text y="0.32em" transform="translate(44,151.33333333333334)">0%</text><text y="0.32em" transform="translate(44,118)">2%</text><text y="0.32em" transform="translate(44,84.66666666666667)">4%</text><text y="0.32em" transform="translate(44,51.33333333333333)">6%</text><text y="0.32em" transform="translate(44,18)">8%</text></g><g aria-label="text" class="tbl-cat-label" fill="#666666" font-size="10.5" font-weight="500" transform="translate(55,12.5)"><text transform="translate(72,218)" data-category="Year 1">Year 1</text><text transform="translate(208,218)" data-category="Year 2">Year 2</text></g><g aria-label="rule" stroke="#999999" transform="translate(0,0.5)"><line x1="0" x2="360" y1="151.33333333333334" y2="151.33333333333334"></line></g><g aria-label="bar"><rect x="72" width="109" y="68" height="83.33333333333334" fill="#0072B2" data-series="Lower rates"></rect><rect x="72" width="109" y="43" height="25" fill="#E69F00" data-series="Wider brackets"></rect><rect x="72" width="109" y="151.33333333333334" height="33.33333333333334" fill="#8856BF" data-series="Limit deductions"></rect><rect x="72" width="109" y="184.66666666666669" height="25" fill="#2A8B3A" data-series="Repeal credit"></rect><rect x="208" width="109" y="84.66666666666667" height="66.66666666666667" fill="#0072B2" data-series="Lower rates"></rect><rect x="208" width="109" y="51.33333333333333" height="33.33333333333334" fill="#E69F00" data-series="Wider brackets"></rect><rect x="208" width="109" y="151.33333333333334" height="24.99999999999997" fill="#8856BF" data-series="Limit deductions"></rect><rect x="208" width="109" y="176.33333333333331" height="33.33333333333337" fill="#2A8B3A" data-series="Repeal credit"></rect></g><g aria-label="dot" class="tbl-net-marker" fill="#FFFFFF" stroke="#000000" stroke-width="2" transform="translate(55,0.5)"><circle cx="72" cy="101.33333333333333" r="5.6" data-series="__total__"></circle><circle cx="208" cy="109.66666666666667" r="5.6" data-series="__total__"></circle></g></svg>