<!-- pane: Small (Small) -->
<svg class="tblchart-p0" fill="currentColor" font-family="system-ui, sans-serif" font-size="10" text-anchor="middle" width="720" height="460" viewBox="0 0 720 460" style="background: transparent; color: rgb(74, 74, 74); font-family: Figtree, &quot;Source Sans 3&quot;, system-ui, -apple-system, &quot;Segoe UI&quot;, Arial, sans-serif; font-size: 10.5px; overflow: visible;" data-margin-left="44" data-margin-right="16" data-margin-top="18" data-margin-bottom="38"><style>:where(.tblchart-p0) {
  --plot-background: white;
  display: block;
  height: auto;
  height: intrinsic;
  max-width: 100%;
}
:where(.tblchart-p0 text),
:where(.tblchart-p0 tspan) {
  white-space: pre;
}</style><g aria-label="rule" stroke="#F0F0F0" transform="translate(0,0.5)"><line x1="0" x2="720" y1="422" y2="422"></line><line x1="0" x2="720" y1="354.6666666666667" y2="354.6666666666667"></line><line x1="0" x2="720" y1="287.33333333333337" y2="287.33333333333337"></line><line x1="0" x2="720" y1="220" y2="220"></line><line x1="0" x2="720" y1="152.66666666666669" y2="152.66666666666669"></line><line x1="0" x2="720" y1="85.33333333333331" y2="85.33333333333331"></line><line x1="0" x2="720" y1="18" y2="18"></line></g><g aria-label="text" class="tbl-y-tick-label" fill="#666666" text-anchor="start" font-size="10.5" font-weight="500" transform="translate(-43.5,-5.5)"><text y="0.32em" transform="translate(44,422)">1.0</text><text y="0.32em" transform="translate(44,354.6666666666667)">1.5</text><text y="0.32em" transform="translate(44,287.33333333333337)">2.0</text><text y="0.32em" transform="translate(44,220)">2.5</text><text y="0.32em" transform="translate(44,152.66666666666669)">3.0</text><text y="0.32em" transform="translate(44,85.33333333333331)">3.5</text><text y="0.32em" transform="translate(44,18)">4.0</text></g><g aria-label="text" fill="#666666" font-size="10.5" font-weight="500" transform="translate(0.5,12.5)"><text transform="translate(44,422)">Jan</text><text transform="translate(153.57344890510947,422)">Jul</text><text transform="translate(264.4014598540146,422)">Jan</text><text transform="translate(373.37271897810217,422)">Jul</text><text transform="translate(484.2007299270073,422)">Jan</text><text transform="translate(593.1719890510948,422)">Jul</text><text transform="translate(704,422)">Jan</text></g><g aria-label="text" fill="#666666" font-size="10.5" font-weight="500" transform="translate(0.5,24.5)"><text transform="translate(44,422)">2020</text><text transform="translate(264.4014598540146,422)">2021</text><text transform="translate(484.2007299270073,422)">2022</text><text transform="translate(704,422)">2023</text></g><g aria-label="rule" stroke="#999999" transform="translate(0,0.5)"><line x1="0" x2="720" y1="556.6666666666666" y2="556.6666666666666"></line></g><g aria-label="line" fill="none" stroke-width="1.75" stroke-linejoin="round" stroke-linecap="round" transform="translate(0.5,0.5)"><path stroke="#0072B2" d="M44,422L264.401,287.333L484.201,152.667L704,18" data-series="Series"></path></g></svg>

<!-- pane: Medium (Medium) -->
<svg class="tblchart-p1" fill="currentColor" font-family="system-ui, sans-serif" font-size="10" text-anchor="middle" width="720" height="460" viewBox="0 0 720 460" style="background: transparent; color: rgb(74, 74, 74); font-family: Figtree, &quot;Source Sans 3&quot;, system-ui, -apple-system, &quot;Segoe UI&quot;, Arial, sans-serif; font-size: 10.5px; overflow: visible;" data-margin-left="44" data-margin-right="16" data-margin-top="18" data-margin-bottom="38"><style>:where(.tblchart-p1) {
  --plot-background: white;
  display: block;
  height: auto;
  height: intrinsic;
  max-width: 100%;
}
:where(.tblchart-p1 text),
:where(.tblchart-p1 tspan) {
  white-space: pre;
}</style><g aria-label="rule" stroke="#F0F0F0" transform="translate(0,0.5)"><line x1="0" x2="720" y1="422" y2="422"></line><line x1="0" x2="720" y1="341.20000000000005" y2="341.20000000000005"></line><line x1="0" x2="720" y1="260.4" y2="260.4"></line><line x1="0" x2="720" y1="179.60000000000002" y2="179.60000000000002"></line><line x1="0" x2="720" y1="98.79999999999998" y2="98.79999999999998"></line><line x1="0" x2="720" y1="18" y2="18"></line></g><g aria-label="text" class="tbl-y-tick-label" fill="#666666" text-anchor="start" font-size="10.5" font-weight="500" transform="translate(-43.5,-5.5)"><text y="0.32em" transform="translate(44,422)">40</text><text y="0.32em" transform="translate(44,341.20000000000005)">45</text><text y="0.32em" transform="translate(44,260.4)">50</text><text y="0.32em" transform="translate(44,179.60000000000002)">55</text><text y="0.32em" transform="translate(44,98.79999999999998)">60</text><text y="0.32em" transform="translate(44,18)">65</text></g><g aria-label="text" fill="#666666" font-size="10.5" font-weight="500" transform="translate(0.5,12.5)"><text transform="translate(44,422)">Jan</text><text transform="translate(153.57344890510947,422)">Jul</text><text transform="translate(264.4014598540146,422)">Jan</text><text transform="translate(373.37271897810217,422)">Jul</text><text transform="translate(484.2007299270073,422)">Jan</text><text transform="translate(593.1719890510948,422)">Jul</text><text transform="translate(704,422)">Jan</text></g><g aria-label="text" fill="#666666" font-size="10.5" font-weight="500" transform="translate(0.5,24.5)"><text transform="translate(44,422)">2020</text><text transform="translate(264.4014598540146,422)">2021</text><text transform="translate(484.2007299270073,422)">2022</text><text transform="translate(704,422)">2023</text></g><g aria-label="rule" stroke="#999999" transform="translate(0,0.5)"><line x1="0" x2="720" y1="1068.4" y2="1068.4"></line></g><g aria-label="line" fill="none" stroke-width="1.75" stroke-linejoin="round" stroke-linecap="round" transform="translate(0.5,0.5)"><path stroke="#0072B2" d="M44,422L264.401,179.6L484.201,292.72L704,66.48" data-series="Series"></path></g></svg>

<!-- pane: Large (Large) -->
<svg class="tblchart-p2" fill="currentColor" font-family="system-ui, sans-serif" font-size="10" text-anchor="middle" width="720" height="460" viewBox="0 0 720 460" style="background: transparent; color: rgb(74, 74, 74); font-family: Figtree, &quot;Source Sans 3&quot;, system-ui, -apple-system, &quot;Segoe UI&quot;, Arial, sans-serif; font-size: 10.5px; overflow: visible;" data-margin-left="44" data-margin-right="16" data-margin-top="18" data-margin-bottom="38"><style>:where(.tblchart-p2) {
  --plot-background: white;
  display: block;
  height: auto;
  height: intrinsic;
  max-width: 100%;
}
:where(.tblchart-p2 text),
:where(.tblchart-p2 tspan) {
  white-space: pre;
}</style><g aria-label="rule" stroke="#F0F0F0" transform="translate(0,0.5)"><line x1="0" x2="720" y1="422" y2="422"></line><line x1="0" x2="720" y1="341.20000000000005" y2="341.20000000000005"></line><line x1="0" x2="720" y1="260.4" y2="260.4"></line><line x1="0" x2="720" y1="179.60000000000002" y2="179.60000000000002"></line><line x1="0" x2="720" y1="98.79999999999998" y2="98.79999999999998"></line><line x1="0" x2="720" y1="18" y2="18"></line></g><g aria-label="text" class="tbl-y-tick-label" fill="#666666" text-anchor="start" font-size="10.5" font-weight="500" transform="translate(-43.5,-5.5)"><text y="0.32em" transform="translate(44,422)">800</text><text y="0.32em" transform="translate(44,341.20000000000005)">850</text><text y="0.32em" transform="translate(44,260.4)">900</text><text y="0.32em" transform="translate(44,179.60000000000002)">950</text><text y="0.32em" transform="translate(44,98.79999999999998)">1000</text><text y="0.32em" transform="translate(44,18)">1050</text></g><g aria-label="text" fill="#666666" font-size="10.5" font-weight="500" transform="translate(0.5,12.5)"><text transform="translate(44,422)">Jan</text><text transform="translate(153.57344890510947,422)">Jul</text><text transform="translate(264.4014598540146,422)">Jan</text><text transform="translate(373.37271897810217,422)">Jul</text><text transform="translate(484.2007299270073,422)">Jan</text><text transform="translate(593.1719890510948,422)">Jul</text><text transform="translate(704,422)">Jan</text></g><g aria-label="text" fill="#666666" font-size="10.5" font-weight="500" transform="translate(0.5,24.5)"><text transform="translate(44,422)">2020</text><text transform="translate(264.4014598540146,422)">2021</text><text transform="translate(484.2007299270073,422)">2022</text><text transform="translate(704,422)">2023</text></g><g aria-label="rule" stroke="#999999" transform="translate(0,0.5)"><line x1="0" x2="720" y1="1714.8000000000002" y2="1714.8000000000002"></line></g><g aria-label="line" fill="none" stroke-width="1.75" stroke-linejoin="round" stroke-linecap="round" transform="translate(0.5,0.5)"><path stroke="#0072B2" d="M44,422L264.401,179.6L484.201,308.88L704,66.48" data-series="Series"></path></g></svg>

<!-- pane: Huge (Huge) -->
<svg class="tblchart-p3" fill="currentColor" font-family="system-ui, sans-serif" font-size="10" text-anchor="middle" width="720" height="460" viewBox="0 0 720 460" style="background: transparent; color: rgb(74, 74, 74); font-family: Figtree, &quot;Source Sans 3&quot;, system-ui, -apple-system, &quot;Segoe UI&quot;, Arial, sans-serif; font-size: 10.5px; overflow: visible;" data-margin-left="44" data-margin-right="16" data-margin-top="18" data-margin-bottom="38"><style>:where(.tblchart-p3) {
  --plot-background: white;
  display: block;
  height: auto;
  height: intrinsic;
  max-width: 100%;
}
:where(.tblchart-p3 text),
:where(.tblchart-p3 tspan) {
  white-space: pre;
}</style><g aria-label="rule" stroke="#F0F0F0" transform="translate(0,0.5)"><line x1="0" x2="720" y1="422" y2="422"></line><line x1="0" x2="720" y1="341.20000000000005" y2="341.20000000000005"></line><line x1="0" x2="720" y1="260.4" y2="260.4"></line><line x1="0" x2="720" y1="179.60000000000002" y2="179.60000000000002"></line><line x1="0" x2="720" y1="98.79999999999998" y2="98.79999999999998"></line><line x1="0" x2="720" y1="18" y2="18"></line></g><g aria-label="text" class="tbl-y-tick-label" fill="#666666" text-anchor="start" font-size="10.5" font-weight="500" transform="translate(-43.5,-5.5)"><text y="0.32em" transform="translate(44,422)">12000</text><text y="0.32em" transform="translate(44,341.20000000000005)">13000</text><text y="0.32em" transform="translate(44,260.4)">14000</text><text y="0.32em" transform="translate(44,179.60000000000002)">15000</text><text y="0.32em" transform="translate(44,98.79999999999998)">16000</text><text y="0.32em" transform="translate(44,18)">17000</text></g><g aria-label="text" fill="#666666" font-size="10.5" font-weight="500" transform="translate(0.5,12.5)"><text transform="translate(44,422)">Jan</text><text transform="translate(153.57344890510947,422)">Jul</text><text transform="translate(264.4014598540146,422)">Jan</text><text transform="translate(373.37271897810217,422)">Jul</text><text transform="translate(484.2007299270073,422)">Jan</text><text transform="translate(593.1719890510948,422)">Jul</text><text transform="translate(704,422)">Jan</text></g><g aria-label="text" fill="#666666" font-size="10.5" font-weight="500" transform="translate(0.5,24.5)"><text transform="translate(44,422)">2020</text><text transform="translate(264.4014598540146,422)">2021</text><text transform="translate(484.2007299270073,422)">2022</text><text transform="translate(704,422)">2023</text></g><g aria-label="rule" stroke="#999999" transform="translate(0,0.5)"><line x1="0" x2="720" y1="1391.6" y2="1391.6"></line></g><g aria-label="line" fill="none" stroke-width="1.75" stroke-linejoin="round" stroke-linecap="round" transform="translate(0.5,0.5)"><path stroke="#0072B2" d="M44,422L264.401,179.6L484.201,300.8L704,18" data-series="Series"></path></g></svg>