<svg class="tblchart" fill="currentColor" font-family="system-ui, sans-serif" font-size="10" text-anchor="middle" width="720" height="400" viewBox="0 0 720 400" style="background: transparent; color: rgb(74, 74, 74); font-family: Figtree, &quot;Source Sans 3&quot;, system-ui, -apple-system, &quot;Segoe UI&quot;, Arial, sans-serif; font-size: 10.5px; overflow: visible;" data-margin-left="44" data-margin-right="16" data-margin-top="18" data-margin-bottom="22"><style>:where(.tblchart) {
  --plot-background: white;
  display: block;
  height: auto;
  height: intrinsic;
  max-width: 100%;
}
:where(.tblchart text),
:where(.tblchart tspan) {
  white-space: pre;
}</style><g aria-label="rule" stroke="#F0F0F0" transform="translate(0,0.5)"><line x1="0" x2="720" y1="306.00000000000006" y2="306.00000000000006"></line><line x1="0" x2="720" y1="233.99999999999997" y2="233.99999999999997"></line><line x1="0" x2="720" y1="162.00000000000003" y2="162.00000000000003"></line><line x1="0" x2="720" y1="89.99999999999999" y2="89.99999999999999"></line><line x1="0" x2="720" y1="18" y2="18"></line></g><g aria-label="text" class="tbl-y-tick-label" fill="#666666" text-anchor="start" font-size="10.5" font-weight="500" transform="translate(-43.5,-5.5)"><text y="0.32em" transform="translate(44,378)">0</text><text y="0.32em" transform="translate(44,306.00000000000006)">1</text><text y="0.32em" transform="translate(44,233.99999999999997)">2</text><text y="0.32em" transform="translate(44,162.00000000000003)">3</text><text y="0.32em" transform="translate(44,89.99999999999999)">4</text><text y="0.32em" transform="translate(44,18)">5</text></g><g aria-label="x-axis tick label" fill="#666666" font-size="10.5" font-variant="tabular-nums" font-weight="500" transform="translate(0.5,13.5)"><text y="0.71em" transform="translate(44,378)">0</text><text y="0.71em" transform="translate(110,378)">5</text><text y="0.71em" transform="translate(176,378)">10</text><text y="0.71em" transform="translate(242,378)">15</text><text y="0.71em" transform="translate(308,378)">20</text><text y="0.71em" transform="translate(374,378)">25</text><text y="0.71em" transform="translate(440,378)">30</text><text y="0.71em" transform="translate(505.99999999999994,378)">35</text><text y="0.71em" transform="translate(572,378)">40</text><text y="0.71em" transform="translate(638,378)">45</text><text y="0.71em" transform="translate(704,378)">50</text></g><g aria-label="rule" stroke="#999999" transform="translate(0,0.5)"><line x1="0" x2="720" y1="378" y2="378"></line></g><g aria-label="rect" fill="#0072B2" stroke="#0072B2"><rect x="44" y="306.00000000000006" width="132" height="71.99999999999994" fill-opacity="0.5" data-series="A"></rect><rect x="176" y="162.00000000000003" width="132" height="215.99999999999997" fill-opacity="0.5" data-series="A"></rect><rect x="308" y="18" width="132" height="360" fill-opacity="0.5" data-series="A"></rect><rect x="440" y="162.00000000000003" width="132" height="215.99999999999997" fill-opacity="0.5" data-series="A"></rect><rect x="572" y="306.00000000000006" width="132" height="71.99999999999994" fill-opacity="0.5" data-series="A"></rect></g><g aria-label="rect" fill="#E69F00" stroke="#E69F00"><rect x="44" y="233.99999999999997" width="132" height="144.00000000000003" fill-opacity="0.5" data-series="B"></rect><rect x="176" y="89.99999999999999" width="132" height="288" fill-opacity="0.5" data-series="B"></rect><rect x="308" y="233.99999999999997" width="132" height="144.00000000000003" fill-opacity="0.5" data-series="B"></rect><rect x="440" y="306.00000000000006" width="132" height="71.99999999999994" fill-opacity="0.5" data-series="B"></rect><rect x="572" y="378" width="132" height="0" fill-opacity="0.5" data-series="B"></rect></g></svg>