<svg class="tblchart" fill="currentColor" font-family="system-ui, sans-serif" font-size="10" text-anchor="middle" width="720" height="400" viewBox="0 0 720 400" style="background: transparent; color: rgb(74, 74, 74); font-family: Figtree, &quot;Source Sans 3&quot;, system-ui, -apple-system, &quot;Segoe UI&quot;, Arial, sans-serif; font-size: 10.5px; overflow: visible;" data-margin-left="44" data-margin-right="16" data-margin-top="18" data-margin-bottom="22"><style>:where(.tblchart) {
  --plot-background: white;
  display: block;
  height: auto;
  height: intrinsic;
  max-width: 100%;
}
:where(.tblchart text),
:where(.tblchart tspan) {
  white-space: pre;
}</style><g aria-label="rule" stroke="#F0F0F0" transform="translate(0,0.5)"><line x1="0" x2="720" y1="318" y2="318"></line><line x1="0" x2="720" y1="258" y2="258"></line><line x1="0" x2="720" y1="198" y2="198"></line><line x1="0" x2="720" y1="138" y2="138"></line><line x1="0" x2="720" y1="77.99999999999999" y2="77.99999999999999"></line><line x1="0" x2="720" y1="18" y2="18"></line></g><g aria-label="text" class="tbl-y-tick-label" fill="#666666" text-anchor="start" font-size="10.5" font-weight="500" transform="translate(-43.5,-5.5)"><text y="0.32em" transform="translate(44,378)">0</text><text y="0.32em" transform="translate(44,318)">1</text><text y="0.32em" transform="translate(44,258)">2</text><text y="0.32em" transform="translate(44,198)">3</text><text y="0.32em" transform="translate(44,138)">4</text><text y="0.32em" transform="translate(44,77.99999999999999)">5</text><text y="0.32em" transform="translate(44,18)">6</text></g><g aria-label="x-axis tick label" fill="#666666" font-size="10.5" font-variant="tabular-nums" font-weight="500" transform="translate(0.5,13.5)"><text y="0.71em" transform="translate(44,378)">0</text><text y="0.71em" transform="translate(110,378)">5</text><text y="0.71em" transform="translate(176,378)">10</text><text y="0.71em" transform="translate(242,378)">15</text><text y="0.71em" transform="translate(308,378)">20</text><text y="0.71em" transform="translate(374,378)">25</text><text y="0.71em" transform="translate(440,378)">30</text><text y="0.71em" transform="translate(505.99999999999994,378)">35</text><text y="0.71em" transform="translate(572,378)">40</text><text y="0.71em" transform="translate(638,378)">45</text><text y="0.71em" transform="translate(704,378)">50</text></g><g aria-label="rule" stroke="#999999" transform="translate(0,0.5)"><line x1="0" x2="720" y1="378" y2="378"></line></g><g aria-label="rect" fill="#0072B2"><rect x="44" y="258" width="132" height="120" data-series=""></rect><rect x="176" y="138" width="132" height="240" data-series=""></rect><rect x="308" y="18" width="132" height="360" data-series=""></rect><rect x="440" y="138" width="132" height="240" data-series=""></rect><rect x="572" y="258" width="132" height="120" data-series=""></rect></g></svg>