<svg class="tblchart" fill="currentColor" font-family="system-ui, sans-serif" font-size="10" text-anchor="middle" width="720" height="400" viewBox="0 0 720 400" style="background: transparent; color: rgb(74, 74, 74); font-family: Figtree, &quot;Source Sans 3&quot;, system-ui, -apple-system, &quot;Segoe UI&quot;, Arial, sans-serif; font-size: 10.5px; overflow: visible;" data-margin-left="44" data-margin-right="16" data-margin-top="18" data-margin-bottom="22"><style>:where(.tblchart) {
  --plot-background: white;
  display: block;
  height: auto;
  height: intrinsic;
  max-width: 100%;
}
:where(.tblchart text),
:where(.tblchart tspan) {
  white-space: pre;
}</style><g aria-label="rule" stroke="#F0F0F0" transform="translate(0,0.5)"><line x1="0" x2="720" y1="288" y2="288"></line><line x1="0" x2="720" y1="198" y2="198"></line><line x1="0" x2="720" y1="108" y2="108"></line><line x1="0" x2="720" y1="18" y2="18"></line></g><g aria-label="text" class="tbl-y-tick-label" fill="#666666" text-anchor="start" font-size="10.5" font-weight="500" transform="translate(-43.5,-5.5)"><text y="0.32em" transform="translate(44,378)">0</text><text y="0.32em" transform="translate(44,288)">5</text><text y="0.32em" transform="translate(44,198)">10</text><text y="0.32em" transform="translate(44,108)">15</text><text y="0.32em" transform="translate(44,18)">20</text></g><g aria-label="x-axis tick label" fill="#666666" font-size="10.5" font-variant="tabular-nums" font-weight="500" transform="translate(0.5,13.5)"><text y="0.71em" transform="translate(44,378)">1</text><text y="0.71em" transform="translate(117.33333333333331,378)">2</text><text y="0.71em" transform="translate(190.66666666666666,378)">3</text><text y="0.71em" transform="translate(264,378)">4</text><text y="0.71em" transform="translate(337.3333333333333,378)">5</text><text y="0.71em" transform="translate(410.6666666666667,378)">6</text><text y="0.71em" transform="translate(484,378)">7</text><text y="0.71em" transform="translate(557.3333333333334,378)">8</text><text y="0.71em" transform="translate(630.6666666666666,378)">9</text><text y="0.71em" transform="translate(704,378)">10</text></g><g aria-label="rule" stroke="#999999" transform="translate(0,0.5)"><line x1="0" x2="720" y1="378" y2="378"></line></g><g aria-label="line" fill="none" stroke-width="2" stroke-linejoin="round" stroke-linecap="round" stroke-dasharray="5 3" transform="translate(0.5,0.5)"><path stroke="#0072B2" d="M117.333,180L190.667,162L264,144L337.333,126" data-series="A"></path><path stroke="#0072B2" d="M557.333,72L630.667,54L704,36" data-series="A"></path><path stroke="#E69F00" d="M117.333,270L190.667,252L264,234L337.333,216" data-series="B"></path><path stroke="#E69F00" d="M557.333,162L630.667,144L704,126" data-series="B"></path></g><g aria-label="line" fill="none" stroke-width="2" stroke-linejoin="round" stroke-linecap="round" transform="translate(0.5,0.5)"><path stroke="#0072B2" d="M44,198L117.333,180" data-series="A"></path><path stroke="#0072B2" d="M337.333,126L410.667,108L484,90L557.333,72" data-series="A"></path><path stroke="#E69F00" d="M44,288L117.333,270" data-series="B"></path><path stroke="#E69F00" d="M337.333,216L410.667,198L484,180L557.333,162" data-series="B"></path></g></svg>