<svg class="tblchart" fill="currentColor" font-family="system-ui, sans-serif" font-size="10" text-anchor="middle" width="720" height="400" viewBox="0 0 720 400" style="background: transparent; color: rgb(74, 74, 74); font-family: Figtree, &quot;Source Sans 3&quot;, system-ui, -apple-system, &quot;Segoe UI&quot;, Arial, sans-serif; font-size: 10.5px; overflow: visible;" data-margin-left="44" data-margin-right="16" data-margin-top="18" data-margin-bottom="22"><style>:where(.tblchart) {
  --plot-background: white;
  display: block;
  height: auto;
  height: intrinsic;
  max-width: 100%;
}
:where(.tblchart text),
:where(.tblchart tspan) {
  white-space: pre;
}</style><g aria-label="rule" stroke="#F0F0F0" transform="translate(0.5,0)"><line x1="176" x2="176" y1="18" y2="378"></line><line x1="308" x2="308" y1="18" y2="378"></line><line x1="440" x2="440" y1="18" y2="378"></line><line x1="572" x2="572" y1="18" y2="378"></line><line x1="704" x2="704" y1="18" y2="378"></line></g><g aria-label="text" fill="#666666" font-size="10.5" font-weight="500" transform="translate(0.5,12.5)"><text transform="translate(44,378)">0</text><text transform="translate(176,378)">20</text><text transform="translate(308,378)">40</text><text transform="translate(440,378)">60</text><text transform="translate(572,378)">80</text><text transform="translate(704,378)">100</text></g><g aria-label="text" fill="#666666" text-anchor="start" font-size="10.5" font-weight="500" transform="translate(-43.5,45.5)"><text y="0.32em" transform="translate(44,41)">2021</text><text y="0.32em" transform="translate(44,153)">2022</text><text y="0.32em" transform="translate(44,265)">2023</text></g><g aria-label="rule" stroke="#999999" transform="translate(0.5,0)"><line x1="44" x2="44" y1="18" y2="378"></line></g><g aria-label="bar"><rect x="44" width="264" y="41" height="90" fill="#0072B2" data-series="Wages"></rect><rect x="308" width="99.00000000000006" y="41" height="90" fill="#E69F00" data-series="Benefits"></rect><rect x="407.00000000000006" width="65.99999999999994" y="41" height="90" fill="#8856BF" data-series="Taxes"></rect><rect x="44" width="297" y="153" height="90" fill="#0072B2" data-series="Wages"></rect><rect x="341" width="118.79999999999995" y="153" height="90" fill="#E69F00" data-series="Benefits"></rect><rect x="459.79999999999995" width="79.20000000000005" y="153" height="90" fill="#8856BF" data-series="Taxes"></rect><rect x="44" width="330" y="265" height="90" fill="#0072B2" data-series="Wages"></rect><rect x="374" width="131.99999999999994" y="265" height="90" fill="#E69F00" data-series="Benefits"></rect><rect x="505.99999999999994" width="92.40000000000003" y="265" height="90" fill="#8856BF" data-series="Taxes"></rect></g><g aria-label="text" fill="#1A1A2E" text-anchor="start" font-size="12" font-weight="700" transform="translate(12.5,45.5)"><text y="0.32em" transform="translate(473,41)">65</text><text y="0.32em" transform="translate(539,153)">75</text><text y="0.32em" transform="translate(598.4,265)">84</text></g></svg>