<svg class="tblchart" fill="currentColor" font-family="system-ui, sans-serif" font-size="10" text-anchor="middle" width="720" height="400" viewBox="0 0 720 400" style="background: transparent; color: rgb(74, 74, 74); font-family: Figtree, &quot;Source Sans 3&quot;, system-ui, -apple-system, &quot;Segoe UI&quot;, Arial, sans-serif; font-size: 10.5px; overflow: visible;" data-margin-left="44" data-margin-right="16" data-margin-top="18" data-margin-bottom="22"><style>:where(.tblchart) {
  --plot-background: white;
  display: block;
  height: auto;
  height: intrinsic;
  max-width: 100%;
}
:where(.tblchart text),
:where(.tblchart tspan) {
  white-space: pre;
}</style><g aria-label="rule" stroke="#F0F0F0" transform="translate(0,0.5)"><line x1="0" x2="720" y1="306.00000000000006" y2="306.00000000000006"></line><line x1="0" x2="720" y1="233.99999999999997" y2="233.99999999999997"></line><line x1="0" x2="720" y1="162.00000000000003" y2="162.00000000000003"></line><line x1="0" x2="720" y1="89.99999999999999" y2="89.99999999999999"></line><line x1="0" x2="720" y1="18" y2="18"></line></g><g aria-label="text" class="tbl-y-tick-label" fill="#666666" text-anchor="start" font-size="10.5" font-weight="500" transform="translate(-43.5,-5.5)"><text y="0.32em" transform="translate(44,378)">0</text><text y="0.32em" transform="translate(44,306.00000000000006)">20</text><text y="0.32em" transform="translate(44,233.99999999999997)">40</text><text y="0.32em" transform="translate(44,162.00000000000003)">60</text><text y="0.32em" transform="translate(44,89.99999999999999)">80</text><text y="0.32em" transform="translate(44,18)">100</text></g><g aria-label="text" fill="#666666" font-size="10.5" font-weight="500" transform="translate(83,12.5)"><text transform="translate(86,378)">2021</text><text transform="translate(292,378)">2022</text><text transform="translate(498,378)">2023</text></g><g aria-label="rule" stroke="#999999" transform="translate(0,0.5)"><line x1="0" x2="720" y1="378" y2="378"></line></g><g aria-label="bar"><rect x="86" width="165" y="233.99999999999997" height="144.00000000000003" fill="#0072B2" data-series="Wages"></rect><rect x="86" width="165" y="180" height="53.99999999999997" fill="#E69F00" data-series="Benefits"></rect><rect x="86" width="165" y="143.99999999999997" height="36.00000000000003" fill="#8856BF" data-series="Taxes"></rect><rect x="292" width="165" y="216" height="162" fill="#0072B2" data-series="Wages"></rect><rect x="292" width="165" y="151.2" height="64.80000000000001" fill="#E69F00" data-series="Benefits"></rect><rect x="292" width="165" y="108" height="43.19999999999999" fill="#8856BF" data-series="Taxes"></rect><rect x="498" width="165" y="198" height="180" fill="#0072B2" data-series="Wages"></rect><rect x="498" width="165" y="126.00000000000001" height="71.99999999999999" fill="#E69F00" data-series="Benefits"></rect><rect x="498" width="165" y="75.60000000000001" height="50.400000000000006" fill="#8856BF" data-series="Taxes"></rect></g><g aria-label="text" fill="#1A1A2E" font-size="14" font-weight="700" transform="translate(83,-5.5)"><text y="0.32em" transform="translate(86,143.99999999999997)">65</text><text y="0.32em" transform="translate(292,108)">75</text><text y="0.32em" transform="translate(498,75.60000000000001)">84</text></g></svg>