<svg class="tblchart" fill="currentColor" font-family="system-ui, sans-serif" font-size="10" text-anchor="middle" width="720" height="400" viewBox="0 0 720 400" style="background: transparent; color: rgb(74, 74, 74); font-family: Figtree, &quot;Source Sans 3&quot;, system-ui, -apple-system, &quot;Segoe UI&quot;, Arial, sans-serif; font-size: 10.5px; overflow: visible;" data-margin-left="44" data-margin-right="16" data-margin-top="18" data-margin-bottom="22"><style>:where(.tblchart) {
  --plot-background: white;
  display: block;
  height: auto;
  height: intrinsic;
  max-width: 100%;
}
:where(.tblchart text),
:where(.tblchart tspan) {
  white-space: pre;
}</style><g aria-label="rule" stroke="#F0F0F0" transform="translate(0,0.5)"><line x1="0" x2="720" y1="378" y2="378"></line><line x1="0" x2="720" y1="326.57142857142856" y2="326.57142857142856"></line><line x1="0" x2="720" y1="275.14285714285717" y2="275.14285714285717"></line><line x1="0" x2="720" y1="172.28571428571428" y2="172.28571428571428"></line><line x1="0" x2="720" y1="120.85714285714286" y2="120.85714285714286"></line><line x1="0" x2="720" y1="69.42857142857144" y2="69.42857142857144"></line><line x1="0" x2="720" y1="18" y2="18"></line></g><g aria-label="text" class="tbl-y-tick-label" fill="#666666" text-anchor="start" font-size="10.5" font-weight="500" transform="translate(-43.5,-5.5)"><text y="0.32em" transform="translate(44,378)">-6%</text><text y="0.32em" transform="translate(44,326.57142857142856)">-4%</text><text y="0.32em" transform="translate(44,275.14285714285717)">-2%</text><text y="0.32em" transform="translate(44,223.71428571428572)">0%</text><text y="0.32em" transform="translate(44,172.28571428571428)">2%</text><text y="0.32em" transform="translate(44,120.85714285714286)">4%</text><text y="0.32em" transform="translate(44,69.42857142857144)">6%</text><text y="0.32em" transform="translate(44,18)">8%</text></g><g aria-label="text" fill="#666666" font-size="10.5" font-weight="500" transform="translate(83,12.5)"><text transform="translate(86,378)">A</text><text transform="translate(292,378)">B</text><text transform="translate(498,378)">C</text></g><g aria-label="rule" stroke="#999999" transform="translate(0,0.5)"><line x1="0" x2="720" y1="223.71428571428572" y2="223.71428571428572"></line></g><g aria-label="bar"><rect x="86" width="165" y="120.85714285714286" height="102.85714285714286" fill="#0072B2" data-series="Lower rates"></rect><rect x="86" width="165" y="69.42857142857144" height="51.428571428571416" fill="#E69F00" data-series="Wider brackets"></rect><rect x="86" width="165" y="223.71428571428572" height="38.571428571428555" fill="#8856BF" data-series="Limit deductions"></rect><rect x="86" width="165" y="262.2857142857143" height="64.28571428571428" fill="#2A8B3A" data-series="Repeal credit"></rect><rect x="292" width="165" y="146.57142857142856" height="77.14285714285717" fill="#0072B2" data-series="Lower rates"></rect><rect x="292" width="165" y="82.2857142857143" height="64.28571428571425" fill="#E69F00" data-series="Wider brackets"></rect><rect x="292" width="165" y="223.71428571428572" height="25.714285714285666" fill="#8856BF" data-series="Limit deductions"></rect><rect x="292" width="165" y="249.4285714285714" height="77.14285714285717" fill="#2A8B3A" data-series="Repeal credit"></rect><rect x="498" width="165" y="198" height="25.714285714285722" fill="#0072B2" data-series="Lower rates"></rect><rect x="498" width="165" y="172.28571428571428" height="25.714285714285722" fill="#E69F00" data-series="Wider brackets"></rect><rect x="498" width="165" y="223.71428571428572" height="51.428571428571445" fill="#8856BF" data-series="Limit deductions"></rect><rect x="498" width="165" y="275.14285714285717" height="77.14285714285711" fill="#2A8B3A" data-series="Repeal credit"></rect></g><g aria-label="dot" class="tbl-net-marker" fill="#FFFFFF" stroke="#000000" stroke-width="2" transform="translate(83,0.5)"><circle cx="86" cy="172.28571428571428" r="10" data-series="__total__"></circle><circle cx="292" cy="185.14285714285714" r="10" data-series="__total__"></circle><circle cx="498" cy="300.85714285714283" r="10" data-series="__total__"></circle></g><g aria-label="text" class="tbl-net-label" fill="#FFFFFF" font-size="12" font-weight="700" transform="translate(83,20.5)"><text y="0.32em" transform="translate(86,172.28571428571428)" data-series="__total__">+2.0%</text><text y="0.32em" transform="translate(292,185.14285714285714)" data-series="__total__">+1.5%</text><text y="0.32em" transform="translate(498,300.85714285714283)" data-series="__total__">−3.0%</text></g></svg>