<svg class="tblchart" fill="currentColor" font-family="system-ui, sans-serif" font-size="10" text-anchor="middle" width="720" height="400" viewBox="0 0 720 400" style="background: transparent; color: rgb(74, 74, 74); font-family: Figtree, &quot;Source Sans 3&quot;, system-ui, -apple-system, &quot;Segoe UI&quot;, Arial, sans-serif; font-size: 10.5px; overflow: visible;" data-margin-left="44" data-margin-right="16" data-margin-top="18" data-margin-bottom="22"><style>:where(.tblchart) {
  --plot-background: white;
  display: block;
  height: auto;
  height: intrinsic;
  max-width: 100%;
}
:where(.tblchart text),
:where(.tblchart tspan) {
  white-space: pre;
}</style><g aria-label="rule" stroke="#F0F0F0" transform="translate(0,0.5)"><line x1="0" x2="720" y1="378" y2="378"></line><line x1="0" x2="720" y1="233.99999999999997" y2="233.99999999999997"></line><line x1="0" x2="720" y1="162.00000000000003" y2="162.00000000000003"></line><line x1="0" x2="720" y1="89.99999999999999" y2="89.99999999999999"></line><line x1="0" x2="720" y1="18" y2="18"></line></g><g aria-label="text" class="tbl-y-tick-label" fill="#666666" text-anchor="start" font-size="10.5" font-weight="500" transform="translate(-43.5,-5.5)"><text y="0.32em" transform="translate(44,378)">-20</text><text y="0.32em" transform="translate(44,306.00000000000006)">0</text><text y="0.32em" transform="translate(44,233.99999999999997)">20</text><text y="0.32em" transform="translate(44,162.00000000000003)">40</text><text y="0.32em" transform="translate(44,89.99999999999999)">60</text><text y="0.32em" transform="translate(44,18)">80</text></g><g aria-label="text" class="tbl-cat-label" fill="#666666" font-size="10.5" font-weight="500" transform="translate(83,12.5)"><text transform="translate(86,378)" data-category="2021">2021</text><text transform="translate(292,378)" data-category="2022">2022</text><text transform="translate(498,378)" data-category="2023">2023</text></g><g aria-label="rule" stroke="#999999" transform="translate(0,0.5)"><line x1="0" x2="720" y1="306.00000000000006" y2="306.00000000000006"></line></g><g aria-label="bar"><rect x="86" width="165" y="198" height="108.00000000000006" fill="#0072B2" data-series="Positive A"></rect><rect x="86" width="165" y="126.00000000000001" height="71.99999999999999" fill="#E69F00" data-series="Positive B"></rect><rect x="86" width="165" y="306.00000000000006" height="35.99999999999994" fill="#8856BF" data-series="Negative A"></rect><rect x="292" width="165" y="180" height="126.00000000000006" fill="#0072B2" data-series="Positive A"></rect><rect x="292" width="165" y="89.99999999999999" height="90.00000000000001" fill="#E69F00" data-series="Positive B"></rect><rect x="292" width="165" y="306.00000000000006" height="53.999999999999886" fill="#8856BF" data-series="Negative A"></rect><rect x="498" width="165" y="162.00000000000003" height="144.00000000000003" fill="#0072B2" data-series="Positive A"></rect><rect x="498" width="165" y="53.999999999999986" height="108.00000000000004" fill="#E69F00" data-series="Positive B"></rect><rect x="498" width="165" y="306.00000000000006" height="71.99999999999994" fill="#8856BF" data-series="Negative A"></rect></g></svg>